<svg id="Layer_1" data-name="Layer 1" xmlns="http://www.w3.org/2000/svg" width="692" height="195.73" viewBox="0 0 692 195.73"><defs><style>.cls-1{fill:#8c98a4;}</style></defs><title>epiroc-logo</title><path class="cls-1" d="M46.14,323.17v39.64l33.18,18.58L149.45,339a13.68,13.68,0,0,0,6.48-11.74v-23.2a13.7,13.7,0,0,0-6.44-11.73L86.47,254a12.48,12.48,0,0,0-13,0L10.48,292A13.68,13.68,0,0,0,4,303.77v76.17a13.69,13.69,0,0,0,6.48,11.75l62.91,38a12.43,12.43,0,0,0,13.12-.11l63-39.43a13.71,13.71,0,0,0,6.3-11.86l-.51-32.55L80,392.9,37.75,367.38v-51l37.9-22.91a8.29,8.29,0,0,1,8.64,0l37.85,23.09-39,23.56a8.54,8.54,0,0,1-8.93,0Z" transform="translate(-4 -252.14)"/><path class="cls-1" d="M198.82,409.27V279.89a2.5,2.5,0,0,1,2.44-2.55h76.47a2.51,2.51,0,0,1,2.45,2.55v23.16a2.5,2.5,0,0,1-2.45,2.55H229.88a2.5,2.5,0,0,0-2.43,2.56v20.5a2.49,2.49,0,0,0,2.43,2.55h43a2.49,2.49,0,0,1,2.44,2.55V355a2.5,2.5,0,0,1-2.44,2.56h-43a2.49,2.49,0,0,0-2.43,2.55v20.69a2.5,2.5,0,0,0,2.43,2.55h48a2.49,2.49,0,0,1,2.44,2.55v23.35a2.49,2.49,0,0,1-2.44,2.55H201.26a2.49,2.49,0,0,1-2.44-2.55" transform="translate(-4 -252.14)"/><path class="cls-1" d="M339.78,341.26c-10.69,0-20.3,7.59-20.3,23.33,0,15.56,9.61,23.52,20.3,23.52,10.87,0,20.48-7.77,20.48-23.52s-9.61-23.33-20.48-23.33M292.31,445.31V320.1a2.49,2.49,0,0,1,2.43-2.54H316.5a2.49,2.49,0,0,1,2.44,2.54v7.12c3.81-6.06,13.59-12,26.46-12,26.09,0,41.86,20.87,41.86,49.13,0,28.84-17.77,49.51-42.95,49.51-11.6,0-20.3-4.17-24.46-9.48v40.88a2.49,2.49,0,0,1-2.44,2.55H294.74a2.49,2.49,0,0,1-2.43-2.55" transform="translate(-4 -252.14)"/><path class="cls-1" d="M397.78,409.27V320.1a2.5,2.5,0,0,1,2.44-2.55h22.66a2.5,2.5,0,0,1,2.44,2.55v89.17a2.49,2.49,0,0,1-2.44,2.55H400.22a2.49,2.49,0,0,1-2.44-2.55m13.59-137.43c9.06,0,16.31,7.59,16.31,16.88s-7.25,16.88-16.31,16.88c-8.69,0-15.95-7.58-15.95-16.88s7.26-16.88,15.95-16.88" transform="translate(-4 -252.14)"/><path class="cls-1" d="M497.73,343.19a2.47,2.47,0,0,1-2.78,2.14,36.47,36.47,0,0,0-5.22-.33c-11.05,0-21,6.88-21,25.66v38.61a2.49,2.49,0,0,1-2.43,2.55H443.61a2.49,2.49,0,0,1-2.44-2.55V320.11a2.5,2.5,0,0,1,2.44-2.56h21.76a2.49,2.49,0,0,1,2.43,2.56v10.15c4.72-10.62,16.13-13.65,23.38-13.65a42.86,42.86,0,0,1,7.92.92,2.55,2.55,0,0,1,1.9,2.89Z" transform="translate(-4 -252.14)"/><path class="cls-1" d="M569.87,364.59c0-15.93-9.78-23.33-20.29-23.33-10.33,0-20.3,7.4-20.3,23.33,0,15.74,10,23.52,20.3,23.52,10.51,0,20.29-7.58,20.29-23.52m27.54,0c0,29.22-20.83,50.08-47.83,50.08-26.82,0-47.84-20.86-47.84-50.08s21-49.88,47.84-49.88c27,0,47.83,20.67,47.83,49.88" transform="translate(-4 -252.14)"/><path class="cls-1" d="M632.61,364.78c0,15,9.6,23.34,21,23.34a18.54,18.54,0,0,0,17.91-11.87,2.42,2.42,0,0,1,3-1.47l19.77,6.34a2.6,2.6,0,0,1,1.61,3.26C691,400,676.5,414.67,653.63,414.67c-26.82,0-48.38-20.68-48.38-49.89,0-29.4,21-50.08,47.47-50.08,23.58,0,37.85,14.38,42.63,30.3a2.59,2.59,0,0,1-1.62,3.25l-20.11,6.34a2.4,2.4,0,0,1-3-1.51c-2.44-6.33-7.81-11.82-17.39-11.82-11.42,0-20.66,8.35-20.66,23.52" transform="translate(-4 -252.14)"/></svg>