<svg xmlns="http://www.w3.org/2000/svg" viewBox="0 0 722.35 243.33"><defs><style>.cls-1{fill:#8c98a4;}</style></defs><title>sykes-logo-nav</title><g id="Logo"><g id="White"><path class="cls-1" d="M91.49,56.26c.22-5.88-1.74-10.28-5.66-13.42C82.13,39.69,76.47,38,69.07,38c-10,0-18.73,6.29-18.73,13.84,0,11.12,13.93,14.68,25.48,17.62,26.35,6.5,64.67,9,64.67,49.92,0,31.88-32.66,47-69,47C34.88,166.38,2.65,156.1,2,115H45.55c-.22,14.26,10.67,22,26.35,22,10,0,22.86-5,22.86-15.1,0-20.56-32.22-16.15-66.41-30.62C12.45,84.58,4.61,70.73,4.61,54.37,6.36,18.51,39,8.65,71.89,8.65c32.45,0,65.76,11.12,63.15,47.61Z"/><polygon class="cls-1" points="179.23 107.86 119.13 11.8 169.65 11.8 204.05 75.35 239.54 11.8 284.4 11.8 222.77 107.86 222.77 163.23 179.23 163.23 179.23 107.86"/><polygon class="cls-1" points="375.36 11.8 426.97 11.8 372.75 78.49 431.32 163.23 377.32 163.23 325.5 82.69 325.06 82.69 325.06 163.23 281.51 163.23 281.51 11.8 325.06 11.8 325.06 78.29 325.5 78.29 375.36 11.8"/><polygon class="cls-1" points="432.71 163.23 432.71 11.8 552.46 11.8 552.46 41.16 476.26 41.16 476.26 72.41 546.37 72.41 546.37 101.78 476.26 101.78 476.26 133.87 552.46 133.87 552.46 163.23 432.71 163.23"/><path class="cls-1" d="M637.72,56.26c.22-5.88-1.74-10.28-5.66-13.42C628.36,39.69,622.7,38,615.29,38c-10,0-18.73,6.29-18.73,13.84C596.57,63,610.5,66.54,622,69.47c26.35,6.5,64.67,9,64.67,49.92,0,31.88-32.66,47-69,47-36.58,0-68.8-10.28-69.47-51.39h43.56c-.22,14.26,10.67,22,26.35,22,10,0,22.86-5,22.86-15.1,0-20.56-32.23-16.15-66.41-30.62-15.9-6.71-23.74-20.55-23.74-36.92,1.75-35.86,34.41-45.72,67.29-45.72,32.44,0,65.75,11.12,63.14,47.61Z"/><rect class="cls-1" x="2.65" y="188.91" width="677.8" height="51.38"/><path class="cls-1" d="M682.35,22.1a19.32,19.32,0,1,1,19.37,19.37A19.29,19.29,0,0,1,682.35,22.1m35.25,0a15.93,15.93,0,1,0-15.88,16,15.89,15.89,0,0,0,15.88-16m-20,1.28V33.2h-3.54V10.49h7.35c4.16,0,8.47,1.13,8.47,6.27,0,2.62-1.59,4.68-4.62,5.29v.1c3.14.62,3.5,2,3.86,4.47a32.14,32.14,0,0,0,1.33,6.57h-4.52c-.26-1.28-.61-2.72-.77-4.06-.26-2-.26-3.75-1.29-4.83-.87-.93-2.05-.82-3.29-.93Zm3.76-3.54c3.34-.1,4.11-1.49,4.11-3.24s-.77-2.57-3.6-2.57H697.6v5.8Z"/></g></g></svg>