<?xml version="1.0" standalone="no"?>
<!DOCTYPE svg PUBLIC "-//W3C//DTD SVG 20010904//EN"
 "http://www.w3.org/TR/2001/REC-SVG-20010904/DTD/svg10.dtd">
<svg version="1.0" xmlns="http://www.w3.org/2000/svg"
 width="400.000000pt" height="212.000000pt" viewBox="0 0 400.000000 212.000000"
 preserveAspectRatio="xMidYMid meet">

<g transform="translate(0.000000,212.000000) scale(0.100000,-0.100000)"
fill="#8c98a4" stroke="none">
<path d="M640 1588 c0 -573 3 -613 53 -722 13 -28 39 -69 57 -90 l34 -38 115
4 c102 3 124 7 179 32 34 16 62 31 62 35 0 3 -24 6 -53 7 -101 1 -188 78 -218
191 -8 34 -13 204 -16 581 l-4 532 -105 0 -104 0 0 -532z"/>
<path d="M1347 2113 c-4 -3 -7 -246 -7 -538 0 -574 0 -577 -55 -685 -61 -120
-222 -206 -370 -198 -36 1 -65 0 -65 -3 0 -3 28 -14 63 -25 92 -28 269 -26
357 4 153 52 250 178 280 364 6 37 10 275 10 576 l0 512 -103 0 c-57 0 -107
-3 -110 -7z"/>
<path d="M2118 1568 c-4 -551 -4 -553 -27 -616 -13 -35 -38 -82 -55 -105 -74
-97 -219 -162 -345 -155 -39 2 -67 1 -63 -3 21 -20 118 -42 202 -46 259 -13
422 99 487 337 16 58 18 119 18 600 l0 535 -107 3 -107 3 -3 -553z"/>
<path d="M2734 2103 c5 -18 116 -444 287 -1104 49 -190 89 -349 89 -353 0 -3
54 -6 120 -6 66 0 120 3 120 6 0 3 -65 250 -144 547 -80 298 -165 621 -191
717 -25 96 -48 183 -51 193 -5 15 -19 17 -120 17 -105 0 -115 -2 -110 -17z"/>
<path d="M3434 2111 c-65 -28 -83 -110 -35 -163 24 -27 36 -33 71 -33 35 0 47
6 71 33 20 22 29 43 29 67 0 65 -78 120 -136 96z m91 -36 c36 -35 35 -96 -1
-124 -47 -37 -106 -23 -129 32 -35 84 67 156 130 92z"/>
<path d="M3431 2013 c1 -32 3 -49 6 -38 8 35 20 37 42 9 12 -15 24 -24 28 -21
3 4 0 13 -6 21 -9 11 -9 19 0 34 17 27 -3 52 -42 52 -29 0 -29 -1 -28 -57z
m59 28 c0 -6 -5 -13 -10 -16 -15 -9 -43 3 -35 15 8 13 45 13 45 1z"/>
<path d="M2586 1587 c-60 -237 -137 -544 -172 -682 -35 -137 -64 -253 -64
-257 0 -5 53 -8 118 -8 l118 0 112 458 c62 251 113 464 112 472 0 23 -104 450
-110 450 -3 0 -54 -195 -114 -433z"/>
<path d="M1602 882 c-23 -71 -42 -133 -42 -137 0 -4 53 -5 118 -3 101 4 125 8
180 33 34 15 62 30 62 34 0 3 -26 7 -58 7 -32 1 -72 9 -90 18 -40 21 -91 82
-112 135 l-16 43 -42 -130z"/>
<path d="M536 323 c-3 -3 -6 -27 -6 -52 0 -35 -3 -42 -12 -33 -19 19 -66 14
-88 -8 -28 -28 -28 -102 0 -130 24 -24 63 -26 80 -5 9 11 16 13 24 5 22 -22
26 -6 26 104 0 105 -6 136 -24 119z m-18 -105 c17 -17 15 -84 -4 -102 -8 -9
-24 -16 -34 -16 -22 0 -50 36 -50 65 0 50 57 84 88 53z"/>
<path d="M2440 328 c-1 -2 -2 -56 -3 -121 -1 -88 1 -117 11 -117 9 0 12 31 12
120 0 73 -4 120 -10 120 -5 0 -10 -1 -10 -2z"/>
<path d="M3077 323 c-4 -3 -7 -27 -7 -52 0 -35 -3 -42 -12 -33 -7 7 -24 12
-40 12 -66 0 -96 -107 -42 -149 32 -25 52 -26 82 -5 12 8 22 10 22 5 0 -6 5
-11 10 -11 6 0 10 47 10 120 0 110 -5 132 -23 113z m-19 -105 c15 -15 16 -72
2 -99 -23 -42 -90 -8 -90 46 0 50 57 84 88 53z"/>
<path d="M75 298 c-53 -147 -75 -210 -75 -213 0 -2 7 -2 15 1 8 3 19 21 25 40
11 32 14 34 55 34 41 0 44 -2 55 -35 6 -19 18 -35 25 -35 10 0 3 30 -23 110
-29 86 -40 110 -55 110 -9 0 -20 -6 -22 -12z m39 -45 c3 -16 8 -38 12 -50 6
-21 3 -23 -31 -23 -31 0 -36 3 -30 18 4 9 9 32 12 50 7 39 28 42 37 5z"/>
<path d="M612 299 c2 -6 8 -10 13 -10 5 0 11 4 13 10 2 6 -4 11 -13 11 -9 0
-15 -5 -13 -11z"/>
<path d="M1006 301 c5 -5 23 -11 39 -13 l30 -3 0 -98 c0 -71 3 -97 13 -97 9 0
12 27 12 100 l0 100 35 0 c19 0 35 5 35 10 0 6 -36 10 -87 10 -53 0 -83 -4
-77 -9z"/>
<path d="M1740 200 l0 -110 68 2 c63 2 64 2 15 5 l-53 4 0 105 c0 86 -3 104
-15 104 -12 0 -15 -19 -15 -110z"/>
<path d="M2779 213 c-17 -54 -34 -104 -37 -111 -2 -6 1 -12 7 -12 6 0 17 16
26 36 14 33 17 35 56 32 37 -3 44 -7 52 -33 9 -28 27 -48 35 -40 2 2 -13 54
-33 114 -48 147 -61 148 -106 14z m65 40 c3 -16 8 -38 12 -50 6 -21 3 -23 -31
-23 -25 0 -35 4 -31 13 2 6 10 29 17 50 14 44 24 47 33 10z"/>
<path d="M3320 295 c0 -8 7 -15 15 -15 8 0 15 7 15 15 0 8 -7 15 -15 15 -8 0
-15 -7 -15 -15z"/>
<path d="M700 271 c0 -11 -6 -22 -12 -25 -10 -5 -10 -7 0 -12 8 -4 12 -28 12
-69 0 -55 3 -66 21 -75 11 -7 28 -8 37 -5 15 6 14 8 -5 16 -20 7 -23 15 -23
69 0 53 2 60 20 60 11 0 20 5 20 10 0 6 -9 10 -20 10 -13 0 -20 7 -20 20 0 11
-7 20 -15 20 -8 0 -15 -9 -15 -19z"/>
<path d="M227 243 c-9 -8 -9 -71 -1 -113 9 -44 46 -60 85 -38 16 10 29 13 29
8 0 -6 5 -10 10 -10 6 0 10 33 10 80 0 47 -4 80 -10 80 -5 0 -10 -24 -10 -53
0 -58 -20 -97 -50 -97 -27 0 -40 30 -40 94 0 52 -7 66 -23 49z"/>
<path d="M610 170 c0 -64 3 -80 15 -80 12 0 15 16 15 80 0 64 -3 80 -15 80
-12 0 -15 -16 -15 -80z"/>
<path d="M1187 243 c-14 -14 -6 -19 26 -15 22 2 38 -2 46 -12 16 -19 18 -17
-38 -36 -51 -17 -68 -46 -45 -79 16 -22 58 -29 69 -11 4 6 15 8 26 5 17 -6 19
-1 19 59 0 45 -5 69 -16 80 -15 16 -75 22 -87 9z m83 -89 c0 -29 -21 -54 -45
-54 -32 0 -45 38 -19 57 25 18 64 17 64 -3z"/>
<path d="M1336 238 c4 -7 16 -26 27 -41 l19 -28 -26 -39 c-14 -22 -26 -42 -26
-45 0 -13 32 13 50 39 l18 28 18 -30 c9 -17 26 -33 36 -35 19 -5 18 -1 -14 45
-24 34 -23 43 8 84 20 26 23 34 11 34 -9 0 -24 -13 -34 -30 -9 -16 -20 -30
-23 -30 -3 0 -14 14 -23 30 -10 17 -25 30 -33 30 -9 0 -12 -5 -8 -12z"/>
<path d="M1910 228 c-31 -33 -28 -100 6 -127 28 -22 69 -27 94 -11 11 7 4 10
-27 10 -34 0 -46 5 -59 25 -9 14 -14 28 -11 32 4 3 30 6 59 7 60 1 72 18 44
61 -22 33 -77 34 -106 3z m90 -18 c13 -24 4 -30 -47 -30 -45 0 -51 6 -30 32
24 31 60 30 77 -2z"/>
<path d="M2087 232 c-34 -37 -30 -110 7 -134 16 -11 64 -10 71 2 10 17 25 11
25 -10 0 -35 -38 -63 -76 -57 -35 6 -47 -6 -18 -17 32 -12 66 -5 89 19 23 22
25 32 25 120 0 86 -9 116 -24 83 -5 -10 -7 -10 -12 0 -9 19 -69 15 -87 -6z
m87 -18 c32 -31 6 -114 -36 -114 -38 0 -61 66 -38 111 13 23 53 25 74 3z"/>
<path d="M2277 243 c-14 -13 -6 -18 30 -18 51 0 59 -30 11 -40 -45 -10 -58
-22 -58 -55 0 -40 24 -57 62 -42 16 6 36 8 44 5 21 -8 20 120 -2 141 -15 16
-75 22 -87 9z m79 -87 c3 -8 0 -24 -6 -36 -15 -27 -63 -24 -69 4 -6 35 63 64
75 32z"/>
<path d="M3140 244 c0 -4 12 -40 27 -81 18 -47 33 -73 43 -73 9 0 26 29 47 80
22 56 27 80 18 80 -7 0 -23 -29 -36 -65 -12 -36 -25 -65 -29 -65 -3 0 -15 28
-26 62 -11 34 -25 63 -32 66 -7 2 -12 0 -12 -4z"/>
<path d="M3320 170 c0 -64 3 -80 15 -80 12 0 15 16 15 80 0 64 -3 80 -15 80
-12 0 -15 -16 -15 -80z"/>
<path d="M3412 238 c-23 -23 -14 -55 24 -77 45 -27 43 -56 -3 -57 -42 0 -53
-11 -20 -19 33 -9 64 2 77 25 14 26 4 46 -37 70 -41 24 -39 44 5 48 18 2 32 7
32 13 0 13 -64 11 -78 -3z"/>
<path d="M3551 224 c-29 -37 -27 -89 4 -119 33 -34 70 -32 107 5 26 27 30 36
25 68 -12 71 -94 99 -136 46z m93 -10 c21 -20 20 -73 -1 -96 -53 -58 -121 37
-71 100 14 17 53 15 72 -4z"/>
<path d="M3730 170 c0 -64 3 -80 15 -80 11 0 15 13 15 54 0 52 16 86 41 86 5
0 9 5 9 10 0 15 -21 12 -42 -7 -17 -15 -18 -15 -18 0 0 10 -4 17 -10 17 -6 0
-10 -33 -10 -80z"/>
<path d="M3865 169 c32 -75 33 -83 19 -104 -8 -13 -22 -26 -31 -29 -13 -5 -14
-9 -4 -19 18 -18 52 26 89 114 42 103 47 122 31 117 -7 -2 -22 -33 -34 -68
-23 -70 -24 -70 -55 13 -12 32 -28 57 -35 57 -11 0 -5 -21 20 -81z"/>
<path d="M873 184 c-3 -8 1 -22 9 -30 12 -12 17 -12 33 -1 23 17 14 47 -15 47
-11 0 -23 -7 -27 -16z"/>
<path d="M1577 193 c-12 -11 -7 -41 7 -46 21 -8 48 16 40 36 -6 17 -35 23 -47
10z"/>
<path d="M2587 193 c-12 -12 -7 -41 8 -47 19 -7 46 20 39 39 -6 15 -35 20 -47
8z"/>
</g>
</svg>
