<?xml version="1.0" standalone="no"?>
<!DOCTYPE svg PUBLIC "-//W3C//DTD SVG 20010904//EN"
 "http://www.w3.org/TR/2001/REC-SVG-20010904/DTD/svg10.dtd">
<svg version="1.0" xmlns="http://www.w3.org/2000/svg"
 width="325.000000pt" height="95.000000pt" viewBox="0 0 325.000000 95.000000"
 preserveAspectRatio="xMidYMid meet">

<g transform="translate(0.000000,95.000000) scale(0.100000,-0.100000)"
fill="#8c98a4" stroke="none">
<path d="M3016 869 c-33 -26 -34 -68 -3 -97 13 -12 33 -22 46 -22 28 0 71 42
71 70 0 26 -43 70 -68 70 -11 0 -31 -9 -46 -21z m84 -9 c11 -11 20 -29 20 -40
0 -25 -34 -60 -58 -60 -29 0 -62 29 -62 56 0 29 32 64 60 64 11 0 29 -9 40
-20z"/>
<path d="M3064 826 c2 -15 6 -29 9 -32 3 -4 5 6 3 20 -1 14 -5 29 -9 32 -3 3
-4 -6 -3 -20z"/>
<path d="M1650 850 c-85 -3 -141 -7 -125 -10 l30 -5 3 -232 c2 -219 1 -233
-17 -242 -10 -6 -21 -7 -25 -4 -3 3 -6 2 -6 -3 0 -5 67 -10 150 -11 167 -3
171 -1 169 69 l-1 33 -9 -27 c-12 -32 -36 -41 -103 -41 -68 1 -76 15 -76 130
l0 93 65 0 c60 0 65 -2 79 -27 14 -27 14 -27 17 25 4 53 1 60 -18 41 -5 -5
-38 -9 -74 -7 l-64 3 -3 93 -3 92 63 0 c71 0 83 -5 97 -40 8 -21 10 -17 10 28
1 28 0 51 -1 50 -2 -1 -73 -5 -158 -8z"/>
<path d="M2600 851 c-123 -38 -201 -159 -185 -286 9 -75 57 -151 119 -190 40
-24 62 -30 123 -34 106 -5 156 12 219 73 79 77 102 173 68 285 -20 68 -78 125
-147 146 -53 16 -154 19 -197 6z m150 -37 c97 -49 144 -195 106 -326 -52 -179
-286 -154 -341 36 -31 108 -6 234 56 279 49 36 122 40 179 11z"/>
<path d="M173 843 c15 -2 34 -14 43 -26 9 -12 58 -123 108 -246 51 -124 97
-226 102 -228 5 -2 59 108 119 244 94 212 114 248 135 254 14 4 -9 7 -55 7
-44 -1 -70 -3 -57 -5 12 -2 22 -11 22 -20 0 -21 -131 -353 -140 -353 -5 0
-105 252 -138 347 -2 7 7 17 19 22 17 7 -6 9 -81 9 -58 -1 -93 -3 -77 -5z"/>
<path d="M740 843 c14 -3 28 -10 32 -17 4 -6 8 -109 8 -228 0 -184 -2 -219
-16 -232 -8 -9 -19 -14 -24 -11 -5 3 -11 2 -13 -2 -3 -5 42 -8 99 -8 57 -1
104 2 104 5 0 3 -12 7 -27 8 -15 1 -31 6 -35 10 -5 5 -7 111 -6 237 l3 229 25
7 c14 4 -20 7 -75 7 -55 -1 -89 -3 -75 -5z"/>
<path d="M935 845 c6 -2 22 -6 36 -9 30 -6 32 -12 154 -309 43 -103 82 -186
87 -185 5 2 54 105 108 228 107 245 119 266 152 273 13 2 -15 4 -62 5 -52 0
-75 -3 -60 -7 14 -4 24 -14 22 -22 -6 -32 -136 -359 -140 -354 -10 10 -132
339 -132 356 0 10 9 19 23 22 12 2 -27 5 -88 5 -60 0 -105 -1 -100 -3z"/>
<path d="M1945 841 l30 -6 3 -232 c2 -219 1 -233 -17 -242 -10 -6 -21 -7 -25
-4 -3 3 -6 2 -6 -3 0 -5 45 -9 100 -10 55 0 100 3 100 8 0 4 -13 8 -29 8 -37
0 -41 12 -41 116 0 84 0 84 26 84 40 0 56 -13 119 -98 32 -44 72 -87 87 -97
31 -18 148 -30 148 -15 0 6 -12 10 -27 10 -30 0 -94 61 -172 163 l-44 58 30
32 c42 44 53 69 53 119 0 95 -47 118 -232 117 -73 -1 -119 -4 -103 -8z m200
-27 c59 -28 83 -120 50 -185 -19 -36 -58 -53 -102 -44 l-33 6 0 113 c0 62 3
116 7 119 11 12 43 8 78 -9z"/>
<path d="M115 222 c-13 -10 -14 -152 0 -152 6 0 10 32 10 80 0 44 0 80 0 80 0
0 -4 -4 -10 -8z"/>
<path d="M923 172 c17 -19 23 -70 10 -88 -5 -5 0 -1 10 9 27 30 17 77 -20 91
-16 6 -16 6 0 -12z"/>
<path d="M1950 162 c24 -33 24 -34 6 -65 l-18 -32 22 20 c28 25 24 72 -10 94
l-24 16 24 -33z"/>
<path d="M2058 171 c24 -24 29 -60 10 -79 -33 -33 -71 17 -49 65 11 23 10 25
-3 13 -21 -16 -20 -64 0 -84 30 -30 65 -17 76 30 7 26 -6 50 -35 65 l-22 11
23 -21z"/>
<path d="M171 125 c2 -54 2 -56 8 -20 l6 40 23 -32 c13 -18 27 -33 31 -33 4 0
8 24 8 53 0 38 -1 42 -4 15 -2 -21 -8 -38 -14 -38 -5 0 -9 3 -9 8 -1 4 -12 21
-25 37 l-25 30 1 -60z"/>
<path d="M283 173 c13 -3 17 -15 17 -54 0 -27 4 -49 10 -49 5 0 7 21 3 49 -5
46 -4 50 18 54 13 2 4 4 -21 4 -25 1 -37 -1 -27 -4z"/>
<path d="M370 125 c0 -54 1 -55 28 -54 16 1 20 3 10 6 -14 3 -18 15 -18 54 0
27 -4 49 -10 49 -5 0 -10 -25 -10 -55z"/>
<path d="M453 125 c0 -33 2 -47 4 -31 l5 28 30 -28 30 -29 -19 32 c-10 18 -23
33 -30 33 -6 0 -14 12 -16 28 -2 15 -4 0 -4 -33z"/>
<path d="M487 159 c4 -13 8 -18 11 -10 2 7 -1 18 -6 23 -8 8 -9 4 -5 -13z"/>
<path d="M540 168 c0 -10 3 -18 8 -18 4 0 18 -16 31 -35 13 -19 26 -35 30 -35
3 0 6 21 7 48 0 27 -1 33 -3 15 -2 -18 -8 -33 -14 -33 -5 0 -9 3 -9 8 -1 4
-12 21 -25 37 -19 23 -25 26 -25 13z"/>
<path d="M675 153 c5 -25 3 -33 -8 -33 -15 0 -28 -21 -26 -43 0 -7 4 -2 9 11
12 27 36 29 45 2 3 -11 10 -20 15 -20 10 0 -12 68 -30 98 -9 13 -10 10 -5 -15z"/>
<path d="M732 173 c13 -3 18 -18 21 -56 l3 -52 2 52 c2 40 6 53 20 56 9 3 -1
5 -23 5 -22 0 -32 -2 -23 -5z"/>
<path d="M823 125 c0 -33 2 -45 4 -27 2 18 2 45 0 60 -2 15 -4 0 -4 -33z"/>
<path d="M870 161 c-5 -11 -10 -28 -10 -39 0 -21 36 -59 46 -49 4 4 -1 9 -10
13 -19 7 -23 80 -3 87 9 4 9 6 0 6 -7 1 -17 -8 -23 -18z"/>
<path d="M981 125 l2 -60 7 50 c4 28 3 54 -1 60 -5 5 -8 -16 -8 -50z"/>
<path d="M1052 150 c0 -19 2 -27 5 -17 2 9 2 25 0 35 -3 9 -5 1 -5 -18z"/>
<path d="M1110 171 c0 -7 5 -21 10 -32 9 -16 7 -19 -10 -19 -11 0 -20 -4 -20
-9 0 -5 9 -7 21 -4 15 4 22 0 26 -16 3 -11 9 -21 14 -21 4 0 1 21 -8 48 -16
49 -33 76 -33 53z"/>
<path d="M1180 125 c0 -54 1 -55 28 -54 16 1 20 3 10 6 -14 3 -18 15 -18 54 0
27 -4 49 -10 49 -5 0 -10 -25 -10 -55z"/>
<path d="M1303 125 c0 -33 2 -45 4 -27 2 18 2 45 0 60 -2 15 -4 0 -4 -33z"/>
<path d="M1335 150 c0 -15 3 -26 8 -23 4 2 7 13 7 23 0 10 -3 21 -7 23 -5 3
-8 -8 -8 -23z"/>
<path d="M1380 123 c0 -31 3 -53 7 -49 10 9 10 106 1 106 -5 0 -8 -26 -8 -57z"/>
<path d="M1416 141 c0 -37 20 -78 32 -66 3 3 -3 14 -12 24 -13 14 -15 24 -8
38 9 18 6 43 -6 43 -4 0 -7 -18 -6 -39z"/>
<path d="M1470 125 c0 -54 1 -55 28 -54 16 1 20 3 10 6 -14 3 -18 15 -18 54 0
27 -4 49 -10 49 -5 0 -10 -25 -10 -55z"/>
<path d="M1606 172 c-5 -9 0 -25 14 -44 12 -16 19 -36 16 -44 -3 -9 -1 -12 4
-9 15 9 12 53 -4 62 -8 4 -16 17 -18 28 -3 15 -5 17 -12 7z"/>
<path d="M1678 154 c-16 -35 7 -78 45 -82 15 -2 27 1 27 7 0 6 -7 8 -15 5 -36
-14 -62 55 -33 84 9 9 9 12 0 12 -7 0 -18 -12 -24 -26z"/>
<path d="M1780 125 c0 -30 4 -55 8 -55 4 0 8 25 7 55 0 30 -3 55 -7 55 -5 0
-8 -25 -8 -55z"/>
<path d="M1840 160 c0 -11 -7 -20 -15 -20 -8 0 -15 -5 -15 -11 0 -6 7 -9 15
-5 11 4 15 -2 15 -24 0 -17 5 -30 10 -30 6 0 10 25 10 55 0 30 -4 55 -10 55
-5 0 -10 -9 -10 -20z"/>
<path d="M1890 154 c-12 -29 5 -74 30 -82 12 -4 11 -1 -2 15 -21 23 -23 64 -6
81 9 9 9 12 0 12 -7 0 -17 -12 -22 -26z"/>
<path d="M2122 128 c-2 -57 -2 -58 26 -57 23 0 24 1 7 8 -15 6 -22 20 -26 57
l-6 49 -1 -57z"/>
<path d="M2362 168 c-7 -7 -12 -27 -12 -45 0 -34 22 -54 57 -52 12 1 10 3 -7
8 -32 9 -49 54 -32 81 14 23 12 26 -6 8z"/>
<path d="M2450 125 c0 -30 5 -55 10 -55 6 0 10 25 10 55 0 30 -4 55 -10 55 -5
0 -10 -25 -10 -55z"/>
<path d="M2520 160 c0 -14 -7 -20 -22 -20 -12 0 -18 -3 -14 -7 4 -5 13 -8 19
-8 7 0 15 -13 18 -30 5 -23 7 -16 8 28 0 31 -1 57 -4 57 -3 0 -5 -9 -5 -20z"/>
<path d="M2570 125 c0 -30 5 -55 10 -55 6 0 10 25 10 55 0 30 -4 55 -10 55 -5
0 -10 -25 -10 -55z"/>
<path d="M2632 128 c-2 -56 -1 -58 23 -58 14 0 25 4 25 9 0 5 -8 8 -17 7 -14
-1 -19 10 -24 49 l-6 50 -1 -57z"/>
<path d="M2700 125 c0 -54 0 -55 30 -55 40 0 67 40 54 78 -5 15 -18 28 -29 30
-19 4 -19 3 -2 -10 28 -21 20 -82 -10 -86 -21 -3 -23 0 -23 47 0 28 -4 51 -10
51 -5 0 -10 -25 -10 -55z"/>
<path d="M2855 156 c-21 -31 -5 -73 30 -82 14 -3 29 -4 32 0 4 3 -3 6 -13 6
-27 0 -44 19 -44 50 0 14 5 31 12 38 7 7 9 12 5 12 -3 0 -14 -11 -22 -24z"/>
<path d="M2975 153 c5 -26 3 -33 -8 -33 -15 0 -28 -21 -26 -43 0 -7 4 -2 9 11
12 27 36 29 45 2 3 -11 10 -20 15 -20 8 0 -26 99 -37 110 -3 3 -2 -10 2 -27z"/>
<path d="M3040 123 c0 -31 3 -54 6 -51 9 9 11 108 2 108 -4 0 -8 -26 -8 -57z"/>
<path d="M3076 141 c0 -37 20 -78 32 -66 3 3 -3 14 -12 24 -13 14 -15 24 -8
38 9 18 6 43 -6 43 -4 0 -7 -18 -6 -39z"/>
<path d="M3130 125 c0 -54 1 -55 28 -54 16 1 20 3 10 6 -14 3 -18 15 -18 54 0
27 -4 49 -10 49 -5 0 -10 -25 -10 -55z"/>
<path d="M2226 126 c-9 -47 -4 -54 39 -53 l35 1 -24 25 c-13 15 -28 34 -33 45
-9 16 -11 14 -17 -18z m28 -22 c4 -9 4 -19 2 -21 -8 -8 -26 8 -26 23 0 19 16
18 24 -2z"/>
<path d="M1000 145 c1 -16 50 -68 58 -61 3 4 -8 21 -26 39 -18 17 -32 27 -32
22z"/>
<path d="M542 100 c0 -19 2 -27 5 -17 2 9 2 25 0 35 -3 9 -5 1 -5 -18z"/>
<path d="M1540 120 c0 -5 7 -7 15 -4 8 4 15 8 15 10 0 2 -7 4 -15 4 -8 0 -15
-4 -15 -10z"/>
<path d="M1600 80 c0 -5 5 -10 11 -10 5 0 7 5 4 10 -3 6 -8 10 -11 10 -2 0 -4
-4 -4 -10z"/>
</g>
</svg>
