<?xml version="1.0" standalone="no"?>
<!DOCTYPE svg PUBLIC "-//W3C//DTD SVG 20010904//EN"
 "http://www.w3.org/TR/2001/REC-SVG-20010904/DTD/svg10.dtd">
<svg version="1.0" xmlns="http://www.w3.org/2000/svg"
 width="422.000000pt" height="228.000000pt" viewBox="0 0 422.000000 228.000000"
 preserveAspectRatio="xMidYMid meet">

<g transform="translate(0.000000,228.000000) scale(0.100000,-0.100000)"
fill="#8c98a4" stroke="none">
<path d="M2180 2176 c7 -7 13 -7 20 0 6 6 3 10 -10 10 -13 0 -16 -4 -10 -10z"/>
<path d="M2084 2114 c-18 -14 -18 -15 4 -4 12 6 22 13 22 15 0 8 -5 6 -26 -11z"/>
<path d="M2136 2102 c10 -18 20 -28 23 -21 2 6 -7 21 -19 33 l-23 21 19 -33z"/>
<path d="M2180 2115 c-11 -13 -10 -14 4 -9 9 3 16 10 16 15 0 13 -6 11 -20 -6z"/>
<path d="M2225 2119 c-4 -6 -5 -12 -2 -15 2 -3 7 2 10 11 7 17 1 20 -8 4z"/>
<path d="M1900 2091 c0 -5 5 -13 10 -16 6 -3 10 -2 10 4 0 5 -4 13 -10 16 -5
3 -10 2 -10 -4z"/>
<path d="M2315 2090 c-14 -22 -35 -84 -30 -89 3 -2 5 1 5 8 0 9 5 9 23 0 18
-9 20 -9 10 2 -7 7 -13 26 -13 42 l0 28 23 -23 c12 -13 17 -17 11 -8 -7 8 -14
24 -16 35 -3 17 -5 18 -13 5z"/>
<path d="M1844 2082 c13 -22 -6 -44 -33 -38 l-26 6 24 -14 c20 -11 27 -11 37
-1 18 18 21 47 5 53 -8 3 -11 0 -7 -6z"/>
<path d="M2363 2075 c-3 -9 -3 -19 1 -22 3 -4 6 1 6 10 0 8 6 18 13 20 9 4 9
6 -1 6 -7 1 -15 -6 -19 -14z"/>
<path d="M1883 2063 c-7 -3 -13 -9 -13 -15 0 -6 6 -6 15 2 12 10 15 10 15 -3
0 -9 7 -23 16 -32 12 -12 13 -19 5 -29 -8 -10 -9 -16 -1 -21 17 -10 12 -25
-12 -35 -23 -10 -23 -10 2 -7 23 2 25 6 24 50 0 26 3 47 8 47 4 0 8 5 8 11 0
8 -5 8 -15 -1 -8 -7 -15 -8 -15 -3 0 17 -25 41 -37 36z"/>
<path d="M2054 2048 c2 -7 -4 -18 -13 -25 -12 -9 -8 -9 19 0 43 15 79 36 63
37 -6 0 -15 -4 -18 -10 -8 -13 -42 -13 -48 0 -3 6 -4 5 -3 -2z"/>
<path d="M2395 2030 c-11 -5 -14 -9 -7 -9 6 -1 13 -11 13 -23 1 -21 2 -21 6
-3 3 11 12 26 21 33 13 10 13 12 1 11 -8 0 -23 -4 -34 -9z"/>
<path d="M2140 2001 c-11 -12 -13 -22 -5 -38 5 -13 13 -23 17 -23 12 0 19 18
8 25 -5 3 -10 11 -10 16 0 6 5 7 10 4 12 -7 13 5 2 21 -5 7 -12 5 -22 -5z"/>
<path d="M1824 1989 c7 -34 -14 -53 -54 -47 -17 3 -33 1 -36 -4 -3 -4 8 -8 24
-8 32 0 40 -26 11 -35 -11 -4 -16 -12 -12 -21 5 -14 -7 -19 -36 -14 -12 1 -13
-1 -2 -14 7 -8 10 -20 6 -26 -5 -8 1 -11 16 -8 18 2 23 9 22 26 -2 13 1 21 6
18 5 -4 7 2 5 11 -5 18 43 53 72 53 8 0 14 5 14 10 0 6 15 11 33 11 31 2 31 2
4 6 -16 3 -35 -1 -43 -8 -12 -10 -17 -9 -27 1 -8 9 -8 11 -1 7 18 -11 22 15 7
43 l-15 25 6 -26z m-64 -159 c0 -5 -5 -10 -11 -10 -5 0 -7 5 -4 10 3 6 8 10
11 10 2 0 4 -4 4 -10z"/>
<path d="M2063 1988 c5 -31 -7 -37 -22 -11 -5 10 -12 15 -16 12 -3 -4 0 -13 8
-20 20 -21 10 -44 -11 -27 -14 11 -14 9 1 -8 23 -28 22 -41 -3 -19 -11 10 -21
28 -21 39 -1 17 -2 17 -6 4 -2 -10 3 -28 11 -40 19 -26 21 -51 3 -27 -7 9 -23
21 -37 28 l-25 12 23 -20 c12 -10 22 -24 22 -29 0 -6 6 -12 13 -15 22 -8 3
-15 -26 -10 -18 4 -24 9 -17 13 8 5 7 9 -4 13 -10 4 -16 1 -16 -9 0 -8 10 -18
22 -23 21 -7 20 -8 -8 -15 l-29 -8 30 -13 c17 -7 25 -14 19 -14 -18 -1 -26
-32 -13 -47 17 -20 -34 -38 -64 -23 -41 22 -51 63 -17 74 11 4 17 11 14 17 -4
7 -9 6 -14 -2 -6 -9 -12 -9 -29 0 -23 12 -51 0 -51 -23 0 -6 6 -3 13 8 15 19
37 13 37 -10 0 -9 -6 -12 -16 -8 -9 3 0 -10 20 -30 20 -21 31 -37 24 -37 -8
-1 -6 -6 5 -14 17 -13 17 -15 -4 -35 -13 -12 -19 -21 -13 -21 5 0 2 -5 -6 -11
-12 -9 -11 -9 5 -4 42 16 66 17 80 5 12 -10 15 -10 15 1 0 20 26 -21 34 -54 3
-15 15 -36 26 -47 11 -11 16 -20 10 -20 -5 0 -6 -7 -3 -17 4 -11 3 -14 -5 -9
-7 4 -12 15 -12 24 -1 9 -9 33 -20 52 l-18 35 -21 -45 c-11 -25 -21 -50 -21
-56 0 -14 -48 -25 -56 -13 -3 5 4 29 15 54 11 24 17 46 13 48 -4 3 -31 -11
-59 -30 -41 -26 -53 -39 -53 -58 0 -27 -9 -32 -28 -13 -9 9 -22 5 -58 -21 -25
-18 -49 -30 -51 -27 -9 9 6 38 17 31 15 -9 12 1 -4 14 -12 10 -18 7 -31 -13
-16 -24 -16 -28 -2 -50 30 -45 117 -35 117 14 0 25 16 26 30 1 25 -48 0 -91
-53 -91 l-32 0 46 -29 c25 -16 57 -43 72 -61 23 -27 27 -41 27 -96 0 -36 4
-64 10 -64 6 0 10 7 10 15 0 13 35 15 255 15 163 0 255 -4 255 -10 0 -5 4 -10
9 -10 5 0 10 25 10 56 0 67 27 109 98 151 l47 27 -32 7 c-17 4 -39 12 -47 19
-19 16 -19 64 0 80 12 10 15 10 15 -2 0 -24 38 -51 70 -51 54 0 90 54 55 83
-13 11 -15 8 -15 -15 0 -30 2 -30 -62 10 -28 17 -48 38 -48 48 0 10 -5 15 -10
12 -7 -4 -7 -12 0 -25 7 -13 6 -21 -5 -30 -13 -11 -15 -8 -16 16 0 24 -11 36
-66 71 -61 40 -67 42 -79 26 -7 -10 -10 -20 -7 -23 2 -3 9 4 15 14 9 17 13 13
34 -30 30 -64 30 -78 2 -70 -13 3 -28 6 -35 6 -6 0 -15 15 -18 33 -4 17 -18
50 -32 72 -14 22 -22 31 -18 20 32 -96 31 -129 -3 -109 -9 5 -29 9 -44 9 -35
-1 -36 8 -3 23 14 6 25 8 25 3 0 -5 -6 -12 -12 -15 -7 -3 -3 -3 10 0 12 3 22
1 22 -5 0 -6 5 -11 10 -11 14 0 12 23 -5 56 -8 16 -15 41 -15 56 0 21 4 26 20
23 25 -5 25 3 0 35 -11 14 -20 28 -20 31 0 10 38 3 54 -10 14 -12 16 -11 13 7
-2 12 -6 25 -10 28 -4 4 -7 20 -7 36 0 15 -4 28 -10 28 -21 0 -9 20 13 21 l22
0 -24 10 -23 9 23 20 24 19 -30 0 c-24 0 -26 -2 -11 -8 18 -7 18 -8 2 -14 -28
-11 -34 -8 -29 13 4 16 2 19 -11 14 -9 -4 -16 -1 -16 6 0 8 9 10 24 6 15 -4
28 0 36 9 8 10 9 15 2 15 -6 0 -14 -5 -17 -10 -4 -6 -11 -8 -16 -4 -5 3 -6 11
-2 17 4 7 0 6 -10 -2 -12 -9 -21 -10 -29 -4 -13 10 -45 9 -56 -1 -3 -3 2 -6
10 -6 17 0 18 -15 5 -37 -5 -8 -4 -13 2 -13 6 0 11 -7 11 -15 0 -8 -3 -14 -7
-14 -19 3 -47 -3 -35 -8 6 -2 10 -9 6 -14 -3 -5 0 -9 5 -9 6 0 11 4 11 10 0
11 55 5 94 -10 18 -7 26 -16 24 -28 -2 -11 3 -26 11 -36 12 -14 11 -16 -7 -13
-12 2 -25 7 -29 12 -5 4 -3 5 3 2 7 -4 11 5 11 23 0 20 -4 27 -11 21 -12 -9
-76 -3 -76 8 0 3 -27 6 -60 6 -33 0 -60 -4 -60 -8 0 -5 4 -6 8 -3 14 8 40 -31
44 -65 2 -22 -2 -33 -12 -36 -13 -4 -13 -3 0 6 13 10 13 12 0 20 -9 7 -17 6
-21 -1 -4 -5 -27 -13 -53 -15 -27 -3 -46 -11 -46 -18 0 -7 -9 -10 -23 -8 -23
4 -22 5 10 40 27 28 31 38 22 49 -9 11 -9 18 -1 26 7 7 12 8 12 3 0 -5 6 -1
13 8 7 10 30 19 56 22 46 4 69 15 33 15 -23 0 -29 14 -12 25 6 4 6 15 0 31 -6
14 -10 26 -10 28 0 1 15 1 33 -1 35 -3 28 2 -15 11 -16 4 -28 11 -28 16 0 5 7
7 15 4 18 -7 21 32 4 56 -8 12 -10 9 -6 -12z m-58 -158 c4 -6 -6 -10 -22 -9
-25 0 -26 1 -8 9 11 5 21 9 22 9 1 1 5 -3 8 -9z m240 0 c3 -5 -1 -10 -9 -10
-9 0 -16 5 -16 10 0 6 4 10 9 10 6 0 13 -4 16 -10z m-85 -70 c0 -3 -4 -10 -8
-15 -15 -18 -33 -67 -21 -60 6 4 14 17 19 29 l9 21 0 -22 c1 -26 5 -27 30 -13
15 7 20 4 29 -15 13 -27 10 -30 -18 -15 -15 8 -18 5 -22 -21 -4 -26 -2 -30 14
-26 16 5 18 0 16 -29 -1 -22 -7 -34 -17 -34 -8 0 -43 -16 -78 -35 -35 -19 -66
-35 -70 -35 -3 0 -3 10 0 22 4 13 0 26 -10 33 -8 6 -17 23 -18 38 -2 14 -6 31
-10 37 -10 16 14 40 42 40 18 0 28 -9 38 -32 13 -31 14 -32 15 -8 1 23 2 23
10 5 5 -11 9 -14 9 -6 1 7 7 11 16 7 11 -4 15 2 15 25 0 27 -2 29 -21 19 -29
-16 -34 -7 -14 24 10 15 15 35 11 49 -4 18 -1 23 14 23 11 0 20 -3 20 -6z m60
-33 c0 -6 -3 -7 -7 -4 -3 4 -15 0 -25 -10 -20 -18 -23 -8 -12 35 6 22 8 22 25
6 11 -9 19 -22 19 -27z m-207 -54 c-7 -2 -19 -2 -25 0 -7 3 -2 5 12 5 14 0 19
-2 13 -5z m247 -187 c14 -2 44 -6 68 -10 l42 -8 0 -99 0 -99 -257 2 -258 3 -3
93 c-3 88 -2 93 20 101 45 17 128 23 143 11 10 -9 20 -8 42 5 26 15 94 15 203
1z m-151 -242 c-11 -14 -10 -16 11 -14 40 3 45 1 25 -13 -14 -11 -15 -16 -5
-22 9 -5 11 -4 6 3 -4 7 -2 12 3 12 16 0 13 -26 -5 -44 -16 -16 -79 -23 -70
-7 3 4 16 6 30 4 13 -3 27 0 30 5 4 7 -8 9 -33 7 -34 -3 -39 -1 -44 21 -4 23
12 46 43 57 23 8 23 8 9 -9z m-89 -26 c0 -14 -9 -17 -42 -17 -24 1 -47 0 -53
-1 -25 -6 -41 1 -42 18 -1 17 6 19 68 18 58 -1 69 -4 69 -18z m320 0 c0 -14
-9 -17 -44 -16 -24 0 -48 -2 -54 -6 -16 -10 -42 5 -42 24 0 15 10 17 70 16 59
-1 70 -4 70 -18z m-383 -42 c-14 -11 -15 -15 -5 -19 9 -4 9 -6 1 -6 -15 -1
-26 16 -18 29 3 6 14 10 23 10 15 -1 15 -2 -1 -14z m320 0 c-14 -11 -15 -15
-5 -19 9 -4 9 -6 1 -6 -15 -1 -26 16 -18 29 3 6 14 10 23 10 15 -1 15 -2 -1
-14z"/>
<path d="M1925 1450 c-19 -8 -19 -9 3 -9 12 -1 22 4 22 9 0 6 -1 10 -2 9 -2 0
-12 -4 -23 -9z"/>
<path d="M1910 1415 c6 -8 9 -23 5 -34 -3 -11 -1 -23 6 -27 8 -5 9 -3 4 6 -4
7 -2 16 5 20 9 6 9 12 -1 29 -8 11 -18 21 -23 21 -4 0 -3 -7 4 -15z"/>
<path d="M2202 1404 c-8 -9 -9 -14 -2 -14 6 0 8 -5 4 -11 -4 -8 0 -9 15 -4 12
4 21 2 21 -4 0 -10 -14 -15 -34 -12 -4 1 -14 -3 -20 -9 -7 -5 -16 -7 -19 -3
-4 3 -7 1 -7 -6 0 -7 -5 -9 -10 -6 -6 4 -9 1 -8 -5 2 -7 -13 -19 -32 -26 -20
-8 -24 -12 -11 -10 13 3 33 0 44 -6 14 -7 18 -7 12 2 -7 12 21 50 38 50 6 0 2
-9 -8 -20 -11 -12 -13 -20 -6 -20 6 0 14 7 17 15 3 8 24 28 45 44 33 24 37 30
25 40 -11 9 -16 9 -22 0 -5 -9 -10 -8 -18 3 -10 13 -13 13 -24 2z"/>
<path d="M1949 1392 c6 -12 7 -23 1 -30 -7 -9 -7 -9 2 -2 17 14 17 50 1 50
-10 0 -11 -5 -4 -18z"/>
<path d="M1980 1398 c0 -19 17 -23 39 -9 8 5 9 11 3 15 -6 3 -14 1 -18 -5 -4
-8 -9 -7 -15 2 -7 11 -9 10 -9 -3z"/>
<path d="M2306 1382 c2 -3 -1 -11 -7 -19 -8 -9 -8 -13 -1 -13 16 0 26 20 15
30 -6 4 -8 5 -7 2z"/>
<path d="M1998 1348 c-10 -15 -15 -28 -9 -28 6 0 11 -7 11 -15 0 -17 35 -21
45 -5 4 6 -1 7 -10 3 -10 -3 -21 0 -26 8 -14 23 -10 32 8 18 15 -13 16 -11 9
14 -4 19 -3 26 4 22 5 -3 10 -15 10 -26 0 -10 4 -19 9 -19 5 0 9 13 9 29 -1
38 -32 38 -60 -1z"/>
<path d="M2256 1361 c-4 -7 -5 -15 -2 -18 9 -9 19 4 14 18 -4 11 -6 11 -12 0z"/>
<path d="M1955 1340 c-3 -6 1 -7 9 -4 18 7 21 14 7 14 -6 0 -13 -4 -16 -10z"/>
<path d="M2076 1223 c-12 -13 -6 -35 8 -30 8 3 16 1 19 -6 2 -6 6 -7 9 -2 6
12 -28 46 -36 38z"/>
<path d="M1702 1957 c-23 -23 -42 -46 -42 -51 0 -4 12 6 26 23 14 17 31 28 37
24 7 -3 9 -2 4 2 -4 5 0 17 10 27 32 35 7 17 -35 -25z"/>
<path d="M2510 1975 c13 -14 26 -25 28 -25 3 0 -5 11 -18 25 -13 14 -26 25
-28 25 -3 0 5 -11 18 -25z"/>
<path d="M2280 1975 c-14 -17 -7 -45 12 -45 9 0 9 3 -2 10 -8 5 -11 12 -8 16
9 8 66 -14 91 -34 9 -8 20 -12 24 -9 3 4 15 0 25 -10 10 -9 21 -13 25 -10 3 4
0 7 -8 7 -12 0 -11 2 1 11 13 9 12 10 -2 5 -10 -3 -20 -1 -23 4 -4 6 1 10 9
10 14 0 14 3 -1 20 -10 11 -22 20 -28 20 -5 0 -4 -4 3 -8 13 -9 6 -42 -9 -42
-5 0 -12 7 -15 15 -4 8 -12 15 -20 15 -7 0 -25 5 -39 12 -18 8 -22 14 -13 20
8 5 9 8 2 8 -6 0 -17 -7 -24 -15z"/>
<path d="M2185 1970 c-3 -5 -1 -10 4 -10 6 0 11 5 11 10 0 6 -2 10 -4 10 -3 0
-8 -4 -11 -10z"/>
<path d="M2209 1940 l-24 -20 27 13 c16 6 28 15 28 20 0 11 -6 9 -31 -13z"/>
<path d="M2490 1930 c0 -5 5 -10 11 -10 5 0 7 5 4 10 -3 6 -8 10 -11 10 -2 0
-4 -4 -4 -10z"/>
<path d="M2571 1890 c0 -8 4 -22 9 -30 12 -18 12 -2 0 25 -6 13 -9 15 -9 5z"/>
<path d="M2466 1884 c7 -3 10 -14 7 -25 -5 -19 12 -49 27 -49 4 0 10 9 13 20
6 25 27 26 28 3 0 -15 2 -15 9 2 8 19 9 19 9 -2 1 -27 21 -41 21 -15 0 28 -23
43 -59 40 -25 -2 -31 -6 -28 -20 3 -11 1 -15 -5 -12 -5 4 -7 19 -4 35 4 23 2
29 -12 28 -9 0 -12 -3 -6 -5z"/>
<path d="M1662 1848 c-7 -7 -12 -23 -11 -37 l1 -26 12 28 c7 16 19 33 27 38
12 7 11 9 -1 9 -9 0 -21 -5 -28 -12z"/>
<path d="M1632 1815 c0 -16 2 -22 5 -12 2 9 2 23 0 30 -3 6 -5 -1 -5 -18z"/>
<path d="M2335 1821 c-3 -6 4 -15 15 -21 24 -13 26 -37 3 -62 -9 -10 -11 -18
-5 -18 6 0 18 13 27 29 8 16 18 31 22 33 5 3 3 4 -4 2 -6 -1 -19 6 -29 17 -18
20 -6 27 13 8 8 -8 13 -8 18 1 5 8 10 8 21 -1 18 -15 18 -49 -2 -77 -18 -26
-15 -27 34 -6 39 16 92 61 92 77 0 5 -9 -2 -21 -17 -18 -23 -67 -56 -83 -56
-3 0 -2 15 1 33 3 23 0 37 -12 47 -20 17 -81 24 -90 11z"/>
<path d="M1690 1813 c0 -23 50 -71 91 -87 23 -9 44 -15 47 -12 3 3 -4 8 -14
11 -54 18 -86 38 -104 67 -11 18 -20 28 -20 21z"/>
<path d="M1790 1775 c0 -5 5 -17 10 -25 5 -8 10 -10 10 -5 0 6 -5 17 -10 25
-5 8 -10 11 -10 5z"/>
<path d="M2576 1763 c-6 -14 -5 -15 5 -6 7 7 10 15 7 18 -3 3 -9 -2 -12 -12z"/>
<path d="M1995 1759 c-11 -17 0 -20 21 -4 17 13 17 14 2 15 -9 0 -20 -5 -23
-11z"/>
<path d="M1650 1757 c0 -2 15 -16 33 -33 l32 -29 -29 33 c-28 30 -36 37 -36
29z"/>
<path d="M2308 1713 c7 -3 16 -2 19 1 4 3 -2 6 -13 5 -11 0 -14 -3 -6 -6z"/>
<path d="M1740 1680 c0 -5 5 -10 11 -10 5 0 7 5 4 10 -3 6 -8 10 -11 10 -2 0
-4 -4 -4 -10z"/>
<path d="M2465 1680 c-15 -7 -16 -9 -4 -9 9 -1 24 -11 32 -23 l15 -23 -1 23
c-1 12 -7 22 -15 22 -7 0 -10 5 -7 10 7 11 7 11 -20 0z"/>
<path d="M2294 1664 c3 -9 6 -23 7 -32 0 -11 2 -12 6 -4 7 18 38 15 85 -8 23
-11 43 -20 45 -20 10 0 -39 40 -49 40 -7 0 -33 9 -57 20 -36 17 -42 18 -37 4z"/>
<path d="M1683 1648 c-13 -22 -12 -36 4 -42 7 -3 12 -2 8 3 -3 5 1 12 7 15 11
5 11 7 0 12 -6 3 -10 10 -6 15 3 5 3 9 0 9 -3 0 -8 -6 -13 -12z"/>
<path d="M1729 1658 c-1 -2 -3 -13 -4 -24 -2 -17 2 -20 19 -16 17 5 18 7 4 10
-10 2 -15 9 -11 18 4 11 -3 22 -8 12z"/>
<path d="M2556 1639 c4 -8 0 -9 -15 -4 -12 4 -21 2 -21 -4 0 -6 8 -11 18 -11
15 0 15 -2 2 -11 -12 -9 -11 -9 5 -4 11 4 26 8 33 8 8 0 7 6 -5 19 -18 20 -28
24 -17 7z"/>
<path d="M1788 1633 c7 -3 16 -2 19 1 4 3 -2 6 -13 5 -11 0 -14 -3 -6 -6z"/>
<path d="M1643 1603 c-3 -10 -8 -22 -11 -26 -2 -5 6 -3 19 3 31 16 39 25 15
16 -14 -5 -17 -2 -12 9 3 8 3 15 0 15 -2 0 -7 -8 -11 -17z"/>
<path d="M2445 1591 c-3 -5 0 -13 6 -17 8 -5 9 -3 4 6 -6 9 -1 10 16 5 19 -5
21 -4 9 4 -19 13 -27 14 -35 2z"/>
<path d="M2586 1592 c-3 -6 -1 -14 5 -17 14 -9 20 -2 10 14 -6 8 -11 9 -15 3z"/>
<path d="M1684 1554 c-18 -14 -18 -15 4 -4 12 6 22 13 22 15 0 8 -5 6 -26 -11z"/>
<path d="M2520 1566 c0 -3 9 -10 20 -16 11 -6 20 -8 20 -6 0 3 -9 10 -20 16
-11 6 -20 8 -20 6z"/>
<path d="M1760 1531 c0 -11 5 -23 10 -26 6 -3 10 3 10 14 0 11 -4 23 -10 26
-5 3 -10 -3 -10 -14z"/>
<path d="M1634 1518 l-19 -23 23 19 c12 11 22 21 22 23 0 8 -8 2 -26 -19z"/>
<path d="M2590 1515 c13 -14 26 -25 28 -25 3 0 -5 11 -18 25 -13 14 -26 25
-28 25 -3 0 5 -11 18 -25z"/>
<path d="M1760 1431 c0 -5 5 -13 10 -16 6 -3 10 -2 10 4 0 5 -4 13 -10 16 -5
3 -10 2 -10 -4z"/>
<path d="M2450 1420 c0 -5 5 -10 10 -10 6 0 10 5 10 10 0 6 -4 10 -10 10 -5 0
-10 -4 -10 -10z"/>
<path d="M2622 1370 c0 -14 2 -19 5 -12 2 6 2 18 0 25 -3 6 -5 1 -5 -13z"/>
<path d="M1660 1300 c0 -5 10 -15 23 -21 22 -12 22 -12 3 10 -21 23 -26 26
-26 11z"/>
<path d="M2505 1258 l-50 -53 46 43 c33 31 48 40 52 30 3 -7 6 -3 6 10 1 12 0
22 -2 22 -1 0 -25 -24 -52 -52z"/>
<path d="M1622 1280 c0 -8 4 -26 8 -40 6 -20 8 -21 8 -5 0 11 -3 29 -8 40 -5
12 -8 14 -8 5z"/>
<path d="M1744 1233 c22 -23 44 -39 49 -36 6 4 8 -2 5 -15 -8 -31 10 -27 22 4
13 33 3 49 -17 28 -14 -14 -19 -12 -57 23 l-41 38 39 -42z"/>
<path d="M2560 1250 c0 -5 5 -10 11 -10 5 0 7 5 4 10 -3 6 -8 10 -11 10 -2 0
-4 -4 -4 -10z"/>
<path d="M2591 1244 c0 -11 3 -14 6 -6 3 7 2 16 -1 19 -3 4 -6 -2 -5 -13z"/>
<path d="M1650 1239 c0 -5 5 -7 10 -4 6 3 10 8 10 11 0 2 -4 4 -10 4 -5 0 -10
-5 -10 -11z"/>
<path d="M1682 1220 c0 -14 2 -19 5 -12 2 6 2 18 0 25 -3 6 -5 1 -5 -13z"/>
<path d="M2410 1207 c0 -13 6 -30 14 -36 11 -9 14 -6 14 14 0 13 -7 30 -14 36
-11 9 -14 7 -14 -14z"/>
<path d="M1646 1198 c-12 -45 -5 -62 9 -23 17 48 17 45 6 45 -5 0 -11 -10 -15
-22z"/>
<path d="M2560 1217 c0 -3 7 -20 15 -38 l15 -34 -2 34 c-2 19 -9 36 -15 39 -7
2 -13 2 -13 -1z"/>
<path d="M1738 1166 c-7 -36 6 -51 20 -22 8 19 8 27 -2 35 -11 9 -15 6 -18
-13z"/>
<path d="M2472 1178 c-8 -8 -8 -17 0 -31 7 -15 7 -22 -3 -28 -8 -5 -9 -9 -3
-9 16 0 34 22 34 42 0 12 -5 16 -17 11 -16 -6 -16 -5 -4 10 15 19 11 23 -7 5z"/>
<path d="M1746 1092 l-19 -27 24 22 c12 12 21 24 18 27 -2 2 -13 -8 -23 -22z"/>
<path d="M2090 1100 c-13 -8 -13 -10 2 -10 9 0 20 5 23 10 8 13 -5 13 -25 0z"/>
<path d="M2155 1100 c-3 -5 -1 -10 4 -10 6 0 11 5 11 10 0 6 -2 10 -4 10 -3 0
-8 -4 -11 -10z"/>
<path d="M2023 1093 c9 -2 23 -2 30 0 6 3 -1 5 -18 5 -16 0 -22 -2 -12 -5z"/>
<path d="M2361 1074 c0 -11 3 -14 6 -6 3 7 2 16 -1 19 -3 4 -6 -2 -5 -13z"/>
<path d="M1785 1070 c-3 -6 1 -7 9 -4 18 7 21 14 7 14 -6 0 -13 -4 -16 -10z"/>
<path d="M2500 1060 c6 -11 13 -20 16 -20 2 0 0 9 -6 20 -6 11 -13 20 -16 20
-2 0 0 -9 6 -20z"/>
<path d="M1830 1059 c0 -6 -7 -8 -16 -5 -10 4 -14 1 -12 -10 2 -8 7 -14 13
-14 5 1 12 -7 16 -17 5 -12 8 -6 8 20 1 20 -1 37 -4 37 -3 0 -5 -5 -5 -11z"/>
<path d="M2464 1052 c23 -26 23 -26 23 -7 0 8 -3 13 -5 10 -3 -3 -12 1 -21 7
-10 8 -9 4 3 -10z"/>
<path d="M1634 1037 c4 -19 2 -35 -6 -45 -11 -13 -11 -15 2 -8 8 4 7 1 -3 -7
-12 -10 -14 -16 -6 -19 6 -2 13 -15 14 -28 1 -14 3 -26 4 -27 2 -5 41 36 41
43 0 3 -9 2 -20 -1 -18 -6 -20 -3 -15 17 13 60 13 77 -2 90 -14 11 -16 10 -9
-15z"/>
<path d="M1715 1050 c-4 -6 -17 -15 -29 -20 -12 -5 -15 -9 -6 -9 18 0 56 27
48 35 -3 3 -9 0 -13 -6z"/>
<path d="M1742 1056 c4 -5 3 -19 -3 -33 -5 -13 -5 -22 0 -19 15 9 20 46 8 53
-7 3 -9 3 -5 -1z"/>
<path d="M2160 1044 c0 -8 4 -13 9 -10 5 3 14 -1 20 -8 10 -11 8 -17 -6 -24
-10 -6 -15 -13 -12 -17 4 -3 14 1 22 10 9 9 19 15 22 15 3 -1 11 1 18 3 6 3 2
6 -10 6 -13 1 -28 10 -35 21 -15 24 -28 26 -28 4z"/>
<path d="M2590 1040 c0 -11 -4 -20 -10 -20 -5 0 -7 -7 -4 -15 10 -25 19 -17
21 20 2 19 1 35 -2 35 -3 0 -5 -9 -5 -20z"/>
<path d="M2035 1039 c3 -4 -2 -10 -11 -13 -18 -7 -10 -26 11 -26 8 0 12 6 9
14 -3 7 2 16 10 19 11 5 16 0 16 -13 0 -22 8 -25 30 -10 13 8 13 10 -2 10 -9
0 -18 5 -20 12 -2 6 -14 12 -26 13 -11 1 -19 -2 -17 -6z"/>
<path d="M2098 1043 c7 -3 16 -2 19 1 4 3 -2 6 -13 5 -11 0 -14 -3 -6 -6z"/>
<path d="M2530 1030 c0 -6 7 -10 15 -10 8 0 15 2 15 4 0 2 -7 6 -15 10 -8 3
-15 1 -15 -4z"/>
<path d="M2396 1015 c-11 -8 -15 -15 -9 -15 6 0 16 7 23 15 16 19 11 19 -14 0z"/>
<path d="M1880 1011 c0 -6 4 -13 10 -16 6 -3 7 1 4 9 -7 18 -14 21 -14 7z"/>
<path d="M2132 1008 c2 -5 8 -9 13 -9 5 0 11 4 13 9 1 5 -4 9 -13 9 -9 0 -14
-4 -13 -9z"/>
<path d="M1953 975 c-28 -23 -33 -24 -41 -9 -5 10 -12 12 -16 6 -3 -5 1 -15 9
-22 20 -16 19 -56 -1 -64 -23 -9 -32 -7 -37 7 -2 6 -2 1 0 -13 7 -42 57 -102
111 -133 128 -72 301 -27 362 94 25 48 25 48 -2 41 -21 -5 -22 -4 -8 13 14 16
13 17 -8 11 -29 -9 -30 16 -2 44 10 10 16 21 11 24 -4 3 -22 -14 -39 -39 -35
-50 -122 -122 -159 -131 -15 -4 -39 0 -60 10 -33 16 -143 112 -143 125 0 3 13
15 27 25 22 17 26 17 20 3 -3 -9 -1 -19 5 -23 6 -4 8 -3 5 3 -4 6 1 17 10 24
15 12 16 12 10 -3 -3 -10 -2 -18 2 -18 7 0 21 23 21 35 0 2 -12 2 -26 -1 -16
-3 -23 -1 -19 6 9 15 3 12 -32 -15z"/>
<path d="M2073 974 c-3 -9 -15 -20 -27 -25 -20 -9 -20 -9 2 -5 12 2 22 0 22
-5 0 -5 -5 -9 -11 -9 -5 0 -7 -4 -4 -10 3 -5 0 -10 -8 -10 -8 0 -17 7 -21 15
-4 13 -9 13 -25 4 -18 -12 -18 -13 7 -36 27 -25 57 -31 49 -10 -3 9 5 12 31 9
29 -4 34 -2 29 12 -4 9 -3 16 2 16 5 0 11 -9 14 -19 4 -16 -1 -21 -27 -24 -17
-2 2 -5 42 -5 l73 -2 15 35 c7 19 14 36 14 37 0 2 -19 3 -42 3 -56 1 -71 6
-80 28 -9 21 -47 22 -55 1z m47 -9 c0 -8 -9 -15 -20 -15 -11 0 -20 7 -20 15 0
8 9 15 20 15 11 0 20 -7 20 -15z m-7 -32 c-7 -2 -19 -2 -25 0 -7 3 -2 5 12 5
14 0 19 -2 13 -5z m112 -23 c3 -5 2 -10 -4 -10 -5 0 -13 5 -16 10 -3 6 -2 10
4 10 5 0 13 -4 16 -10z"/>
<path d="M2210 971 c0 -6 4 -13 10 -16 6 -3 7 1 4 9 -7 18 -14 21 -14 7z"/>
<path d="M2579 961 c14 -25 2 -35 -20 -15 -16 15 -17 14 -13 -3 3 -11 -2 -25
-10 -32 -9 -8 -16 -19 -16 -25 1 -6 10 0 21 14 23 27 54 37 45 14 -3 -8 0 -14
6 -14 7 0 9 13 5 34 -3 22 -1 37 6 40 7 2 2 5 -11 5 -19 1 -21 -2 -13 -18z"/>
<path d="M1849 953 c-13 -16 -12 -17 4 -4 16 13 21 21 13 21 -2 0 -10 -8 -17
-17z"/>
<path d="M2510 948 c0 -18 -26 -31 -42 -21 -7 3 -8 1 -4 -5 10 -16 27 -15 50
3 16 12 17 18 8 27 -9 9 -12 8 -12 -4z"/>
<path d="M1707 943 c-8 -13 41 -39 51 -27 4 5 5 8 3 7 -2 -2 -10 2 -18 8 -7 6
-13 8 -13 3 0 -5 -4 -3 -9 5 -5 7 -11 9 -14 4z"/>
<path d="M1865 940 c-3 -5 -2 -10 4 -10 5 0 13 5 16 10 3 6 2 10 -4 10 -5 0
-13 -4 -16 -10z"/>
<path d="M1813 911 c-20 -17 -21 -20 -6 -26 10 -3 14 -3 10 1 -4 4 0 16 10 26
21 23 14 23 -14 -1z"/>
<path d="M1685 910 c3 -5 8 -10 11 -10 2 0 4 5 4 10 0 6 -5 10 -11 10 -5 0 -7
-4 -4 -10z"/>
<path d="M2427 879 c4 -13 8 -18 11 -10 2 7 -1 18 -6 23 -8 8 -9 4 -5 -13z"/>
<path d="M1800 824 c0 -6 7 -19 16 -30 14 -18 14 -18 3 6 -14 31 -19 36 -19
24z"/>
<path d="M1863 795 c0 -8 4 -12 9 -9 5 3 6 10 3 15 -9 13 -12 11 -12 -6z"/>
<path d="M1865 730 c21 -22 41 -40 44 -40 3 0 -13 18 -34 40 -21 22 -41 40
-44 40 -3 0 13 -18 34 -40z"/>
<path d="M2359 733 c-13 -16 -12 -17 4 -4 16 13 21 21 13 21 -2 0 -10 -8 -17
-17z"/>
<path d="M2286 727 c3 -10 9 -15 12 -12 3 3 0 11 -7 18 -10 9 -11 8 -5 -6z"/>
<path d="M2177 679 c7 -7 15 -10 18 -7 3 3 -2 9 -12 12 -14 6 -15 5 -6 -5z"/>
<path d="M2088 633 c18 -2 45 -2 60 0 15 2 0 4 -33 4 -33 0 -45 -2 -27 -4z"/>
<path d="M1955 552 c-5 -4 -10 -28 -10 -55 0 -44 2 -47 25 -47 15 0 20 3 13 8
-6 4 -13 29 -15 54 -2 29 -7 45 -13 40z"/>
<path d="M2020 550 c0 -5 11 -10 25 -10 30 0 30 -1 5 -50 -11 -22 -18 -40 -15
-40 5 0 55 95 55 105 0 3 -16 5 -35 5 -19 0 -35 -4 -35 -10z"/>
<path d="M2124 549 c-4 -8 -3 -9 5 -5 6 4 14 0 18 -9 3 -10 0 -20 -6 -25 -10
-5 -9 -9 2 -13 9 -3 17 -16 19 -29 4 -20 5 -21 12 -5 5 9 5 25 1 35 -4 9 -8
26 -9 37 -1 22 -30 32 -42 14z"/>
<path d="M2225 534 c-27 -29 -32 -53 -13 -72 18 -18 46 -14 58 9 13 24 -2 49
-29 49 -12 1 -11 5 8 20 13 11 18 20 12 20 -7 0 -23 -12 -36 -26z m33 -52 c2
-14 -2 -22 -12 -22 -19 0 -29 17 -22 36 8 22 30 12 34 -14z"/>
<path d="M1827 492 c-6 -8 58 -10 66 -2 3 3 -10 6 -28 7 -19 2 -36 0 -38 -5z"/>
<path d="M2347 492 c-6 -8 58 -10 66 -2 3 3 -10 6 -28 7 -19 2 -36 0 -38 -5z"/>
<path d="M2113 460 c2 -8 12 -16 23 -17 13 -2 15 -1 4 4 -8 3 -19 11 -23 17
-6 7 -7 6 -4 -4z"/>
<path d="M430 365 l0 -25 21 21 c11 11 30 19 42 17 20 -3 22 -10 25 -73 4 -84
-2 -112 -26 -118 -9 -3 12 -5 48 -5 36 0 58 2 50 5 -26 10 -30 25 -30 111 0
81 0 82 25 82 14 0 34 -9 45 -20 l20 -20 0 25 0 25 -110 0 -110 0 0 -25z"/>
<path d="M695 373 c14 -14 17 -31 13 -96 -3 -53 -9 -82 -19 -88 -9 -6 3 -8 36
-8 28 0 44 3 38 6 -8 3 -13 23 -13 49 l0 44 45 0 c45 0 45 0 45 -34 0 -19 -7
-42 -16 -50 -14 -15 -11 -16 38 -16 41 1 49 3 36 11 -15 8 -18 25 -18 94 0 69
3 86 18 94 13 8 4 10 -38 10 -42 0 -51 -2 -37 -10 11 -7 17 -22 17 -49 l0 -40
-45 0 -45 0 0 44 c0 34 4 46 18 49 9 3 -7 5 -36 6 -50 1 -52 0 -37 -16z"/>
<path d="M953 379 c14 -8 17 -25 17 -94 0 -69 -3 -86 -17 -94 -13 -8 6 -10 73
-11 75 0 93 3 98 16 11 29 6 34 -15 13 -14 -14 -30 -19 -57 -17 -36 3 -37 4
-40 46 -4 48 16 58 42 20 15 -22 16 -21 16 27 0 48 -1 49 -16 27 -26 -37 -44
-28 -44 23 0 44 1 45 32 45 19 0 42 -9 56 -22 21 -20 24 -20 19 -5 -4 10 -7
23 -7 28 0 5 -39 9 -87 9 -65 -1 -83 -3 -70 -11z"/>
<path d="M1278 372 c9 -9 35 -56 57 -104 22 -49 43 -88 46 -88 4 0 10 11 13
24 3 13 14 43 24 67 l19 43 24 -67 c13 -37 27 -67 30 -67 4 0 21 39 39 88 17
48 41 95 52 105 20 17 19 17 -17 17 -30 0 -35 -3 -26 -13 8 -10 7 -26 -5 -63
-9 -27 -20 -53 -24 -57 -4 -5 -17 19 -28 52 -19 56 -19 61 -4 71 13 7 3 9 -36
10 l-53 0 20 -25 c19 -25 19 -28 4 -72 -15 -42 -17 -45 -29 -28 -8 10 -21 38
-30 62 -15 38 -15 46 -3 54 9 6 -4 9 -38 9 -51 0 -52 -1 -35 -18z"/>
<path d="M1672 363 c-5 -16 -13 -37 -17 -48 -7 -19 -7 -20 7 -1 14 18 16 18
26 -14 7 -18 12 -35 12 -36 0 -2 -13 -4 -30 -4 -23 0 -28 4 -24 18 2 9 -5 -3
-16 -28 -12 -25 -28 -51 -37 -58 -14 -10 -11 -12 23 -12 25 0 34 3 26 9 -8 4
-12 19 -10 32 2 20 10 25 40 27 33 3 38 0 44 -23 4 -18 2 -30 -7 -36 -9 -6 6
-9 41 -9 39 1 50 3 39 10 -9 5 -34 52 -55 105 -22 52 -42 95 -46 95 -3 0 -11
-12 -16 -27z"/>
<path d="M1843 379 c14 -8 17 -24 17 -87 0 -80 -5 -95 -30 -105 -8 -4 26 -6
77 -4 81 2 94 5 117 26 54 51 38 139 -29 167 -40 17 -181 20 -152 3z m132 -24
c20 -19 25 -34 25 -75 0 -60 -25 -93 -68 -88 -26 3 -27 5 -30 82 -2 44 -1 85
2 93 8 21 45 15 71 -12z"/>
<path d="M2113 379 c14 -8 17 -25 17 -94 0 -69 -3 -86 -17 -94 -14 -8 -5 -10
37 -11 38 0 50 3 40 10 -23 14 -27 161 -5 183 15 16 13 17 -37 17 -41 -1 -49
-3 -35 -11z"/>
<path d="M2322 363 c-5 -16 -13 -37 -17 -48 -7 -19 -7 -20 7 -1 14 18 16 18
26 -14 7 -18 12 -35 12 -36 0 -2 -13 -4 -30 -4 -23 0 -28 4 -24 18 2 9 -5 -3
-16 -28 -12 -25 -28 -51 -37 -58 -14 -10 -11 -12 23 -12 25 0 34 3 26 9 -8 4
-12 19 -10 32 2 20 10 25 40 27 33 3 38 0 44 -23 4 -18 2 -30 -7 -36 -9 -6 6
-9 41 -9 39 1 50 3 39 10 -9 5 -34 52 -55 105 -22 52 -42 95 -46 95 -3 0 -11
-12 -16 -27z"/>
<path d="M2640 372 c-74 -36 -71 -146 4 -177 42 -18 59 -18 109 -4 32 9 37 14
37 39 0 17 7 33 18 39 13 8 4 10 -38 10 -42 0 -51 -2 -37 -10 20 -12 23 -49 5
-67 -20 -20 -55 -13 -77 14 -44 56 -16 157 47 167 27 4 27 4 -3 5 -16 1 -46
-6 -65 -16z"/>
<path d="M2781 382 c-1 -8 -8 -11 -20 -7 -16 5 -15 1 7 -24 15 -16 28 -28 29
-27 1 0 -2 17 -7 36 -4 19 -8 29 -9 22z"/>
<path d="M2873 375 c25 -24 25 -170 0 -184 -14 -8 -5 -10 37 -10 42 0 51 2 38
10 -23 13 -26 89 -4 89 20 0 32 -20 40 -62 7 -37 8 -38 49 -38 40 0 41 0 19
16 -12 8 -22 21 -22 28 0 7 -9 25 -20 39 l-20 26 20 6 c11 3 23 18 26 32 11
41 -15 57 -103 62 -72 3 -76 2 -60 -14z m105 -7 c18 -18 14 -56 -7 -68 -34
-18 -41 -11 -41 35 0 37 3 45 18 45 10 0 23 -5 30 -12z"/>
<path d="M3142 375 c-39 -17 -66 -73 -57 -115 10 -47 49 -75 107 -75 43 0 53
4 79 33 81 91 -15 209 -129 157z m74 -3 c52 -34 43 -164 -12 -178 -40 -10 -64
24 -64 90 0 74 35 115 76 88z"/>
<path d="M3360 380 c11 -6 16 -32 18 -90 4 -72 7 -83 28 -97 29 -19 99 -13
123 11 10 11 17 40 19 89 3 51 8 76 20 85 13 10 9 12 -29 12 -35 -1 -40 -3
-26 -11 14 -8 17 -24 17 -82 0 -80 -9 -97 -51 -97 -46 0 -59 23 -59 100 0 55
4 71 18 79 13 8 4 10 -38 11 -38 0 -50 -3 -40 -10z"/>
<path d="M3623 379 c24 -14 25 -159 1 -183 -14 -15 -11 -16 38 -16 41 1 49 3
36 11 -12 7 -18 22 -18 48 0 37 1 39 40 44 52 7 70 22 70 58 0 38 -28 49 -118
49 -50 -1 -63 -3 -49 -11z m101 -5 c19 -7 21 -55 4 -72 -7 -7 -20 -12 -30 -12
-15 0 -18 8 -18 45 0 46 8 53 44 39z"/>
</g>
</svg>
