<svg xmlns="http://www.w3.org/2000/svg" xmlns:xlink="http://www.w3.org/1999/xlink" width="703.035" height="602.334" viewBox="0 0 703.035 602.334">
  <defs>
    <linearGradient id="linear-gradient" x1="0.5" x2="0.5" y2="1" gradientUnits="objectBoundingBox">
      <stop offset="0" stop-color="#fff"/>
      <stop offset="1" stop-color="gray"/>
    </linearGradient>
    <linearGradient id="linear-gradient-2" x1="0.5" y1="0.832" x2="0.5" y2="-0.485" gradientUnits="objectBoundingBox">
      <stop offset="0" stop-color="#93b7e2"/>
      <stop offset="0.375" stop-color="#b8d0ec"/>
      <stop offset="1" stop-color="#fff"/>
    </linearGradient>
    <linearGradient id="linear-gradient-3" x1="0" y1="0.5" x2="1" y2="0.5" xlink:href="#linear-gradient-2"/>
  </defs>
  <g id="Group_5444" data-name="Group 5444" transform="translate(-146.954 -2862.071)">
    <g id="Group_5439" data-name="Group 5439" transform="translate(146.954 2862.071)">
      <path id="Path_5347" data-name="Path 5347" d="M56.015,9.072C19.922,26.209-1.556,65.468.088,108.176,1.152,135.8,10.514,167.046,41.963,186.87c67.17,42.34,151.755-33.705,167.926,79.441,7.3,51.075-12.545,100.917-3.573,151.232,3.127,17.535,9.953,34.844,22.217,47.762C264.5,503.191,335.8,494.191,382.357,484.88c53.592-10.72,104.687-34.518,146.607-69.7,38.433-32.249,69.7-74.347,83.392-122.613,10.372-36.565,13.091-74.491-6.771-107.806A122.5,122.5,0,0,0,552.3,136.73c-21.311-9.879-48.589-7.264-71.765-6.9a608.809,608.809,0,0,0-92.873,8.6c-26.523,4.526-51.378,11.7-78.475,10.613-53.724-2.153-82.079-56.6-108.271-95.214C178.214,20.361,132.677-1.884,92.2.126A94.859,94.859,0,0,0,56.015,9.072Z" transform="translate(94.073 0) rotate(11)" opacity="0.18" fill="url(#linear-gradient)"/>
      <g id="Group_5438" data-name="Group 5438" transform="translate(85.386 40.419)">
        <g id="Group_5424" data-name="Group 5424" transform="translate(0 0)">
          <path id="Path_6319" data-name="Path 6319" d="M4740.683,852.413l-4.721.57-8.886-73.587,4.72-.57a4.613,4.613,0,0,1,5.133,4.027l7.78,64.427A4.613,4.613,0,0,1,4740.683,852.413Z" transform="translate(-4700.802 -671.633)" fill="#145a82"/>
          <path id="Path_6320" data-name="Path 6320" d="M5021.6,852.413l4.721.57L5035.2,779.4l-4.721-.57a4.613,4.613,0,0,0-5.133,4.027l-7.779,64.427A4.613,4.613,0,0,0,5021.6,852.413Z" transform="translate(-4808.797 -671.633)" fill="#145a82"/>
          <path id="Path_6321" data-name="Path 6321" d="M4921.618,719.037v-.8a110.026,110.026,0,0,0-220.051,0v.8a29.833,29.833,0,0,0-16.1,30.151l1.729,14.317a29.85,29.85,0,0,0,33.214,26.056h0l-8.774-72.664a99.963,99.963,0,0,1,199.909,0l-8.773,72.664a29.914,29.914,0,0,0,3.835.188,97.482,97.482,0,0,1-94.739,75.1v5.736a103.233,103.233,0,0,0,100.779-81.5,29.841,29.841,0,0,0,23.338-25.577l1.728-14.317A29.834,29.834,0,0,0,4921.618,719.037Z" transform="translate(-4685.251 -608.209)" fill="#00acc1"/>
          <path id="Path_6322" data-name="Path 6322" d="M4827.209,621.218a100.1,100.1,0,0,0-99.827,94.705l-.13-1.069a99.964,99.964,0,0,1,199.91,0l-.13,1.069A100.1,100.1,0,0,0,4827.209,621.218Z" transform="translate(-4700.868 -611.181)" fill="#0e7f8c"/>
          <g id="Group_5422" data-name="Group 5422" transform="translate(1.213 107.748)">
            <path id="Path_6323" data-name="Path 6323" d="M4727.075,779.745l.129-.016c-.007.314-.013.627-.018.942Z" transform="translate(-4702.015 -779.729)" fill="#14384d"/>
            <path id="Path_6324" data-name="Path 6324" d="M4743.81,877.183l-4.72.57-3.6-29.839a58.129,58.129,0,0,0,9.133-2.5l3.216,26.637A4.61,4.61,0,0,1,4743.81,877.183Z" transform="translate(-4705.142 -804.151)" fill="#14384d"/>
            <path id="Path_6325" data-name="Path 6325" d="M5020.862,844.415a57.98,57.98,0,0,0,9.1,2.785l-3.645,30.181-4.722-.57a4.612,4.612,0,0,1-4.026-5.133Z" transform="translate(-4810.01 -803.78)" fill="#14384d"/>
            <path id="Path_6326" data-name="Path 6326" d="M5045.584,779.745l-.112.926c0-.315-.01-.628-.018-.942Z" transform="translate(-4820.39 -779.729)" fill="#14384d"/>
            <path id="Path_6327" data-name="Path 6327" d="M4727.187,780.671l-.111-.926.129-.016C4727.2,780.043,4727.191,780.356,4727.187,780.671Z" transform="translate(-4702.015 -779.729)" fill="#0e7f8c"/>
            <path id="Path_6328" data-name="Path 6328" d="M4717.526,848.039l3.6,29.839v0a29.848,29.848,0,0,1-33.214-26.054l-.734-6.075a59.013,59.013,0,0,0,30.344,2.288Z" transform="translate(-4687.182 -804.276)" fill="#0e7f8c"/>
            <path id="Path_6329" data-name="Path 6329" d="M5045.472,780.671c0-.315-.01-.628-.018-.942l.13.016Z" transform="translate(-4820.39 -779.729)" fill="#0e7f8c"/>
            <path id="Path_6330" data-name="Path 6330" d="M5011.587,846.7l-.661,5.479a29.842,29.842,0,0,1-23.336,25.577,102.987,102.987,0,0,1-100.779,81.5v-5.734a97.235,97.235,0,0,0,94.738-75.1,29.572,29.572,0,0,1-3.834-.189v0l3.644-30.181a59,59,0,0,0,30.229-1.351Z" transform="translate(-4761.406 -804.629)" fill="#0e7f8c"/>
          </g>
          <path id="Path_6331" data-name="Path 6331" d="M4886.811,974.605v-2.311c41.7-.141,83.712-28.783,94.738-75.1C4976.317,938.831,4934.748,973.491,4886.811,974.605Z" transform="translate(-4760.193 -715.657)" fill="#00acc1"/>
          <path id="Path_6332" data-name="Path 6332" d="M4877.364,762.185h-66.111a38.134,38.134,0,1,0-.365,76.267h16.01a5.158,5.158,0,0,1,4.618,2.86l11.022,22.148a1.774,1.774,0,0,0,3.176,0l11.023-22.148a5.157,5.157,0,0,1,4.618-2.86H4877a38.134,38.134,0,1,0,.365-76.267Z" transform="translate(-4717.786 -665.458)" fill="#f7931e"/>
          <path id="Path_6333" data-name="Path 6333" d="M4918.059,806.849a38.37,38.37,0,0,1-38.5,38.114h-15.645a5.163,5.163,0,0,0-4.62,2.86l-11.022,22.149a1.773,1.773,0,0,1-3.175,0l-11.022-22.149a5.163,5.163,0,0,0-4.618-2.86h-16.009a38.132,38.132,0,0,1-33.807-20.47,37.873,37.873,0,0,0,26.888,11.154h66.7a38,38,0,0,0,33.484-55.949A38,38,0,0,1,4918.059,806.849Z" transform="translate(-4720.348 -671.969)" fill="#d98421"/>
          <g id="Group_5423" data-name="Group 5423" transform="translate(88.722 127.646)">
            <circle id="Ellipse_170" data-name="Ellipse 170" cx="7.472" cy="7.472" r="7.472" fill="#fff"/>
            <circle id="Ellipse_171" data-name="Ellipse 171" cx="7.472" cy="7.472" r="7.472" transform="translate(30.146)" fill="#fff"/>
            <circle id="Ellipse_172" data-name="Ellipse 172" cx="7.472" cy="7.472" r="7.472" transform="translate(60.292)" fill="#fff"/>
          </g>
          <path id="Path_6334" data-name="Path 6334" d="M4790.281,807.294a2.147,2.147,0,0,1-2.147-2.147,31.657,31.657,0,0,1,31.656-31.656h64.543a2.147,2.147,0,0,1,0,4.295H4819.79a27.361,27.361,0,0,0-27.36,27.361A2.148,2.148,0,0,1,4790.281,807.294Z" transform="translate(-4723.503 -669.662)" fill="#ffbe73"/>
          <path id="Path_6335" data-name="Path 6335" d="M4727.2,779.729c-.007.314-.013.627-.018.942l-.111-.926Z" transform="translate(-4700.802 -671.981)" fill="#ffbe73"/>
          <path id="Path_6336" data-name="Path 6336" d="M5045.584,779.745l-.112.926c0-.315-.01-.628-.018-.942Z" transform="translate(-4819.177 -671.981)" fill="#ffbe73"/>
          <rect id="Rectangle_444" data-name="Rectangle 444" width="36.054" height="23.205" rx="11.603" transform="translate(108.591 247.903)" fill="#145a82"/>
          <path id="Path_6337" data-name="Path 6337" d="M4894.167,1018.723a11.6,11.6,0,0,1-11.6,11.6h-12.849a11.607,11.607,0,0,1-10.753-15.971,11.606,11.606,0,0,0,10.753,7.234h12.849a11.6,11.6,0,0,0,10.751-7.234A11.526,11.526,0,0,1,4894.167,1018.723Z" transform="translate(-4749.521 -759.217)" fill="#14384d"/>
        </g>
        <g id="Group_5436" data-name="Group 5436" transform="translate(61.738 104.861)">
          <g id="Group_5425" data-name="Group 5425" transform="translate(0 180.484)">
            <path id="Path_6338" data-name="Path 6338" d="M4915.105,1136.715s4.3,14.056,21.1,22.971a52.321,52.321,0,0,0,24.542,5.995H5262.98s45.6.35,61.238-21.148-14.333-48.859-46.254-51.465-49.189,0-49.189,0-6.979-24.126-34.992-39.109-55.192-5.19-61.074,8.491c0,0-26.635-47.556-98.016-48.208S4887.093,1050.072,4915.105,1136.715Z" transform="translate(-4909.162 -1014.233)" fill="url(#linear-gradient-2)"/>
          </g>
          <g id="Group_5435" data-name="Group 5435" transform="translate(111.975)">
            <path id="Path_6339" data-name="Path 6339" d="M5170.4,823.993s78.1,94.341,53.574,115.2-69.167-33.83-77.362-48.542S5170.4,823.993,5170.4,823.993Z" transform="translate(-5031.839 -763.016)" fill="#aa3766"/>
            <g id="Group_5427" data-name="Group 5427" transform="translate(227.384 255.552)">
              <path id="Path_6340" data-name="Path 6340" d="M5350.389,1133.731s3.065,14.333,5.829,17.844a7.239,7.239,0,0,1-5.126,3.406,77.324,77.324,0,0,1-15.128.945c.488-5.922-8.939-16.495-9.3-19.733Z" transform="translate(-5326.667 -1133.731)" fill="#fff"/>
              <g id="Group_5426" data-name="Group 5426" transform="translate(8.646 17.844)">
                <path id="Path_6341" data-name="Path 6341" d="M5359.352,1179.526a175.181,175.181,0,0,0,26.135-5.43,9.7,9.7,0,0,1,.6,1.927c.714,3.518-34.982,10.625-41.668,8.462-1.8-.581-2.914-2.294-3.437-4.52A114.938,114.938,0,0,0,5359.352,1179.526Z" transform="translate(-5340.637 -1166.583)" fill="#fff"/>
                <path id="Path_6342" data-name="Path 6342" d="M5359.145,1175.08a114.91,114.91,0,0,1-18.365.439,17.267,17.267,0,0,1,.059-7.187,15.9,15.9,0,0,0,.241-1.844,77.323,77.323,0,0,0,15.128-.945,7.239,7.239,0,0,0,5.126-3.406c.063.079.125.16.189.227,1.272,1.335,4.313,1.9,8.515,2.748,6.156,1.73,12.823-1.132,15.241,4.537A175.2,175.2,0,0,1,5359.145,1175.08Z" transform="translate(-5340.43 -1162.137)" fill="#1e1240"/>
              </g>
            </g>
            <g id="Group_5429" data-name="Group 5429" transform="translate(313.133 229.31)">
              <path id="Path_6343" data-name="Path 6343" d="M5483.576,1091.958s8.883,11.657,12.881,13.656a7.235,7.235,0,0,1-3.185,5.267,77.435,77.435,0,0,1-13.282,7.306c-2.083-5.566-15.119-11.109-16.822-13.886Z" transform="translate(-5463.168 -1091.958)" fill="#fff"/>
              <g id="Group_5428" data-name="Group 5428" transform="translate(16.822 8.733)">
                <path id="Path_6344" data-name="Path 6344" d="M5512.069,1124.316a175.2,175.2,0,0,0,21.325-16.055,9.79,9.79,0,0,1,1.37,1.485c2.146,2.878-27.113,24.527-34.083,25.422-1.873.24-3.613-.833-5.035-2.624A114.947,114.947,0,0,0,5512.069,1124.316Z" transform="translate(-5492.065 -1106.752)" fill="#fff"/>
                <path id="Path_6345" data-name="Path 6345" d="M5509.951,1123.423a114.962,114.962,0,0,1-16.424,8.228,17.245,17.245,0,0,1-3.011-6.526,16.029,16.029,0,0,0-.568-1.77,77.418,77.418,0,0,0,13.282-7.306,7.234,7.234,0,0,0,3.185-5.267c.09.045.18.092.267.125,1.721.665,4.713-.116,8.874-1.145,6.307-1.06,11.116-6.492,15.721-2.394A175.229,175.229,0,0,1,5509.951,1123.423Z" transform="translate(-5489.947 -1105.859)" fill="#1e1240"/>
              </g>
            </g>
            <path id="Path_6346" data-name="Path 6346" d="M5160.047,873.346a16.883,16.883,0,0,1,10.71-5.524s-7.738,34.716-8.775,42.6c-.689,5.24-1.676,11.1-2.261,14.45a129.546,129.546,0,0,1-13.105-17.928c-1.313-2.356-1.593-5.668-1.141-9.568C5151.037,887.3,5157.652,876.078,5160.047,873.346Z" transform="translate(-5031.839 -779.312)" fill="#311e69"/>
            <path id="Path_6347" data-name="Path 6347" d="M5112.6,818.582c-1.834-14.18-31.76-22.719-56.165-25.543-15.061-1.743-35.43.257-44.472,5.934-49.791,31.264-24.28,155.207-15.448,174.673s57.619-3.8,78.687-10.672,44.556-19.685,39.368-27.7-25.809-37.762-19.913-54.695S5114.958,836.85,5112.6,818.582Z" transform="translate(-4971.169 -751.281)" fill="#d95f76"/>
            <path id="Path_6348" data-name="Path 6348" d="M5146.982,884.436c5.9-16.932,20.3-43.732,17.943-62-1.12-8.656-12.712-15.206-27.122-19.641,1.182,9.9.287,31.52-5.668,48-5.352,14.814-13.345,47.17-6.89,71.468,5.8,21.846,20.858,33.05,30.384,32.039,8.717-5.34,14.013-10.929,11.265-15.172C5161.706,931.119,5141.086,901.369,5146.982,884.436Z" transform="translate(-5023.498 -755.135)" fill="#aa3766"/>
            <path id="Path_6349" data-name="Path 6349" d="M5134.135,992.69s59.924-50.889,91.733-48.833,141.954,69.076,142.85,82.673-15.821,27.357-27.7,31.58-105.8-62.713-105.8-62.713-14.973,7.8-36.418,28.406c-23.885,22.95-54.374,46.055-76.546,41.187C5105.265,1061.263,5117.011,1009.954,5134.135,992.69Z" transform="translate(-5020.201 -807.56)" fill="#311e69"/>
            <path id="Path_6350" data-name="Path 6350" d="M5156.573,1049.709c-7.3,8.187-29.483,25.8-40.136,39.1,1.313,3.584,3.5,6.014,6.726,6.722,18.579,4.079,42.994-11.483,64.473-30.136,5.419-10.83,13.6-29.754,8.489-36.629C5188.8,1018.907,5167.9,1036.995,5156.573,1049.709Z" transform="translate(-5021.118 -838.101)" fill="#1e1240"/>
            <path id="Path_6351" data-name="Path 6351" d="M5158.155,930.032c43.1-4.292,81.473,120.244,78.314,132.9-4.232,16.958-32.115,12.4-38.312,7.359-3.962-3.22-30.444-54.567-46.481-76.1,0,0-25.834,66.576-81.083,69.436-40.848,2.114-55.08-24.735-53.943-32.929C5017.645,1023.538,5129.263,932.908,5158.155,930.032Z" transform="translate(-4983.993 -802.402)" fill="#614cd4"/>
            <path id="Path_6352" data-name="Path 6352" d="M5045.521,870.348s-9.859,68.173-6.76,70.991S5061.476,945,5061.476,945s-15.955,10.633-24.969,8.942-14.3-7.934-12.677-25.281C5026.275,902.463,5045.521,870.348,5045.521,870.348Z" transform="translate(-4986.578 -780.252)" fill="#311e69"/>
            <path id="Path_6353" data-name="Path 6353" d="M5188.879,945.793c.789-1.461,4.563-3.227,7.405-3.865s6.36.112,7.738-.766,3.233-.971,2.476.6-1.5,6.574-8.813,6.821S5187.988,947.442,5188.879,945.793Z" transform="translate(-5047.986 -806.347)" fill="#ff6161"/>
            <path id="Path_6354" data-name="Path 6354" d="M5013.083,806.586c-20.011-2.529-53.935,71.694-32.514,137.449s137.663-22.553,131.367-35.214c-1.333-2.682-.643-10.617-7.813-9.924-26.671,2.579-84.209,30.215-89.72,24.776C5005.091,914.484,5049.808,811.229,5013.083,806.586Z" transform="translate(-4968.058 -756.521)" fill="#ff6161"/>
            <path id="Path_6355" data-name="Path 6355" d="M5013.083,806.586a15.838,15.838,0,0,1,4.648,1.286c-1.3,10.459-15.078,27.047-22.478,44.943-13.176,31.863-7.867,77.4.607,92.165s20.063,6.578,37.268,4.85,50.531-20.081,59.854-29.132c6.918-6.718,10.959-17.505,16.731-19.165,1.355,2.383,1.446,5.725,2.222,7.287,6.3,12.661-109.946,100.97-131.367,35.214S4993.073,804.057,5013.083,806.586Z" transform="translate(-4968.058 -756.521)" fill="#ad263d"/>
            <g id="Group_5430" data-name="Group 5430" transform="translate(145.961 73.413)">
              <path id="Path_6356" data-name="Path 6356" d="M5250.764,936.108h-51.636c-1.341,0-2.257-1.317-2.046-2.941l11.21-86.437a3.2,3.2,0,0,1,2.809-2.941h51.635c1.342,0,2.257,1.317,2.046,2.941l-11.21,86.437A3.2,3.2,0,0,1,5250.764,936.108Z" transform="translate(-5197.052 -843.79)" fill="#311e69"/>
              <path id="Path_6357" data-name="Path 6357" d="M5254.352,936.108h-51.637c-1.341,0-2.256-1.317-2.046-2.941l11.211-86.437a3.2,3.2,0,0,1,2.809-2.941h51.636c1.34,0,2.256,1.317,2.046,2.941l-11.21,86.437A3.2,3.2,0,0,1,5254.352,936.108Z" transform="translate(-5198.385 -843.79)" fill="#1e1240"/>
              <path id="Path_6358" data-name="Path 6358" d="M5261.418,889.432c-.308,2.373-2.144,4.3-4.1,4.3s-3.3-1.923-2.988-4.3,2.145-4.295,4.1-4.295S5261.726,887.06,5261.418,889.432Z" transform="translate(-5218.331 -859.163)" fill="#311e69"/>
            </g>
            <path id="Path_6359" data-name="Path 6359" d="M5188.144,945.745s2.492,3.5,10.4,4.4c2.529.288,9.446-2.684,10.974-.44.878,1.288-2.375,3.312-3.263,5.314s-5.382,3.065-6.052,4.222a13.676,13.676,0,0,1-4.682,3.743c-1.228.466-14.482,2.186-15.188-8.1C5180.082,951.237,5188.144,945.745,5188.144,945.745Z" transform="translate(-5044.873 -808.285)" fill="#ff6161"/>
            <g id="Group_5433" data-name="Group 5433" transform="translate(83.729)">
              <path id="Path_6360" data-name="Path 6360" d="M5130.442,745.335s12-8.472,2.345-16.537c-5.155-4.306-11.867-.165-16.531,2.3-6.875,3.642-11.031,8.969-11.424,15.854-.216,3.772,2.134,11.6,2.134,11.6S5125.685,753.957,5130.442,745.335Z" transform="translate(-5100.526 -726.926)" fill="#311e69"/>
              <path id="Path_6361" data-name="Path 6361" d="M5107.56,765.848l-9.567,21.934c-.32,3.279,11.666,11.161,17.212,7.469,1.624-1.081,2.965-21.219,2.965-21.219Z" transform="translate(-5097.986 -741.398)" fill="#ff6161"/>
              <path id="Path_6362" data-name="Path 6362" d="M5118.343,750.3l-6.195,12.235a8.366,8.366,0,0,0,4.34,10.831c3.311,1.464,5.549,1.812,10.05,1.955,3.751.119,6.182-3.125,6.921-7.952a45.585,45.585,0,0,0-.594-15.5C5131.36,744.555,5122.963,742.619,5118.343,750.3Z" transform="translate(-5103.018 -733.789)" fill="#ff6161"/>
              <path id="Path_6363" data-name="Path 6363" d="M5130.158,766.855a22.161,22.161,0,0,1,4.375.516c.98.4-.017,9.729-1.889,13.7-1.531,3.247-4.137,5.26-7.19,5.24s-9.547-2.654-11.023-4.875a12.651,12.651,0,0,1-1.563-10.882c.979-2.672,2.854-4.952,3.274-5.97a1.988,1.988,0,0,1,2.429-1.45c1.3.292,1.659,3.5,3.983,3.417S5125.423,765.6,5130.158,766.855Z" transform="translate(-5103.295 -740.364)" fill="#311e69"/>
              <path id="Path_6364" data-name="Path 6364" d="M5112.867,767.52c.979-2.672.979-6.1,1.4-7.114s1.224-5.774,2.521-5.482c.268.06,2.279,5.426,2.493,5.681.282,1.794-.564,4.551-.756,6.653-.231,2.55,1.38,7.725,3.574,8.331s4.12,1.806,6.615,1.267a21.457,21.457,0,0,0,5.028-2.085,18.808,18.808,0,0,1-1.1,3.267c-1.531,3.247-4.137,5.26-7.19,5.24s-9.547-2.653-11.023-4.875A12.651,12.651,0,0,1,5112.867,767.52Z" transform="translate(-5103.295 -737.331)" fill="#1e1240"/>
              <g id="Group_5432" data-name="Group 5432" transform="translate(7.971 16.676)">
                <path id="Path_6365" data-name="Path 6365" d="M5118.435,754.157s-5.575-.048-6.817,1.006c-.507.43-1.276,3.535-.784,4.226s1.288,1.113,1.172.262-.288-3.284.283-3.437a58.022,58.022,0,0,1,6.135.724Z" transform="translate(-5110.676 -753.726)" fill="#311e69"/>
                <g id="Group_5431" data-name="Group 5431" transform="translate(7.013)">
                  <path id="Path_6366" data-name="Path 6366" d="M5122.348,761.042c.815,1.837,3.331,1.949,5.05,1.76a6.271,6.271,0,0,0,3.964-2.436c.85-.982,2.019-2.493,1.916-3.879.107,0,.3.021.415.033-.018,1.584-.177,3.438.639,4.864a4.361,4.361,0,0,0,4.122,2.207,2.158,2.158,0,0,0,.59-.138c1.987-.77,2.557-5.663,2.557-5.686.019-1.459.4-2.083-.607-2.571a8.369,8.369,0,0,0-2.957-.641,7.9,7.9,0,0,0-3.272.432,4.45,4.45,0,0,1-1.833.1c-1.034-1.509-3.637-1.562-5.273-1.608a32.132,32.132,0,0,0-3.443.1c-.616.049-2.014-.087-2.1.817C5121.91,756.388,5121.512,759.161,5122.348,761.042Zm12.59-3.29c.019-.252-.1-1.2.186-1.388,1.5-.79,5.387.015,5.387.015s.25,5.534-1.779,6.388a1.466,1.466,0,0,1-.4.1,3.147,3.147,0,0,1-2.781-1.207C5134.653,760.5,5134.834,759.124,5134.938,757.752Zm-11.821,1.493a30.528,30.528,0,0,1,.278-4.216c2.525-.191,5.8-.525,8.148.646.025.018.054.034.078.054.9.647-.258,2.57-.639,3.218a7.024,7.024,0,0,1-2.4,2.661,5.129,5.129,0,0,1-3.184.349A2.4,2.4,0,0,1,5123.117,759.244Z" transform="translate(-5121.838 -753.472)" fill="#311e69"/>
                  <path id="Path_6367" data-name="Path 6367" d="M5135.691,758.558c.019-.252-.1-1.2.187-1.388,1.5-.79,5.387.015,5.387.015s.25,5.534-1.78,6.388a1.464,1.464,0,0,1-.4.1,3.146,3.146,0,0,1-2.78-1.207C5135.407,761.309,5135.588,759.93,5135.691,758.558Zm-11.821,1.493a30.6,30.6,0,0,1,.278-4.216c2.525-.191,5.8-.525,8.148.646.025.018.054.034.078.054.9.647-.258,2.57-.639,3.218a7.02,7.02,0,0,1-2.4,2.661,5.129,5.129,0,0,1-3.184.349A2.4,2.4,0,0,1,5123.87,760.05Z" transform="translate(-5122.592 -754.278)" fill="#9388ff" style="mix-blend-mode: screen;isolation: isolate"/>
                </g>
              </g>
              <path id="Path_6368" data-name="Path 6368" d="M5116.053,757.906a11.982,11.982,0,0,1-.459-2.5c-.147-1.609-.739-3.965-3.018-2.572-3.315,2.025-2.06,10.552,1.976,10.841C5117.546,763.892,5116.691,759.949,5116.053,757.906Z" transform="translate(-5102.704 -736.403)" fill="#ff6161"/>
              <path id="Path_6369" data-name="Path 6369" d="M5134.762,772.271l6.391.634s-1.584,2.905-4.12,1.954S5134.762,772.271,5134.762,772.271Z" transform="translate(-5111.657 -743.786)" fill="#fff"/>
            </g>
            <path id="Path_6370" data-name="Path 6370" d="M4975.631,983.511q.479,3.795,1.164,7.594c22.984,3.339,34.553-1.613,37.729-3.332-.665-1.361-.84-3.586-.643-6.512Z" transform="translate(-4968.765 -821.49)" fill="#311e69"/>
            <g id="Group_5434" data-name="Group 5434" transform="translate(0 47.485)">
              <path id="Path_6371" data-name="Path 6371" d="M5009.728,802.561c-23.83-1.92-54.146,58.948-42.425,120.037,8.325-.078,28.7,2.345,42.537-3.738C5007.681,898.82,5045.055,805.407,5009.728,802.561Z" transform="translate(-4964.701 -802.517)" fill="#d95f76"/>
            </g>
            <path id="Path_6372" data-name="Path 6372" d="M5026.836,802.562a14.608,14.608,0,0,0-4.15.286c2.27,10.329,6.787,34.272,3.981,50.45-3.259,18.8-15,55.008-15.952,69.3a52.626,52.626,0,0,0,16.233-3.739C5024.789,898.821,5062.163,805.408,5026.836,802.562Z" transform="translate(-4981.81 -755.032)" fill="#aa3766"/>
            <path id="Path_6373" data-name="Path 6373" d="M5210.395,1069.105c-13.944-19.6-24.931-54.767-42.679-63.641s-15.635,13.1-33.507,28.312-17.2,26.2-43.168,38.377c-19.455,9.125-43.3,8.414-54.042,7.484,8.6,6.882,21.938,12.316,41.183,11.321,55.248-2.859,81.083-69.436,81.083-69.436,16.037,21.529,42.519,72.875,46.481,76.1,3.722,3.025,15.264,5.872,24.809,3.995A365.279,365.279,0,0,0,5210.395,1069.105Z" transform="translate(-4991.583 -829.729)" fill="#311e69"/>
          </g>
          <path id="Path_6374" data-name="Path 6374" d="M5038.659,1242.914a15.766,15.766,0,0,1-10.113-3.661c-7.375-6.161-19.353-19.626-10.086-36.771,12.836-23.746,69.634-14.44,69.634-14.44s1.6-49.1,50.059-56.477,56.21,60.006,56.21,60.006,16.953-15.723,40.378-8.984,27.6,29.869,27.6,29.869a53.438,53.438,0,0,1,13.515-1.108c20.472.921,19.63,31.566-.863,31.566Z" transform="translate(-4871.46 -877.164)" fill="url(#linear-gradient-3)"/>
        </g>
        <g id="Group_5437" data-name="Group 5437" transform="translate(346.274 47.97)">
          <path id="Path_6375" data-name="Path 6375" d="M5241.845,686.824a17.863,17.863,0,0,0,8.692,9.464,21.561,21.561,0,0,0,10.111,2.469h124.514s18.787.144,25.228-8.712-5.9-20.129-19.055-21.2-20.265,0-20.265,0-2.875-9.939-14.416-16.112-22.739-2.138-25.161,3.5c0,0-10.974-19.592-40.38-19.86S5230.3,651.129,5241.845,686.824Z" transform="translate(-5239.396 -636.364)" fill="url(#linear-gradient-2)"/>
        </g>
      </g>
    </g>
  </g>
</svg>
